<svg xmlns="http://www.w3.org/2000/svg" width="904" height="878" viewBox="0 0 904 878">
<g>
<path d="M 901.57 660.15 C902.52,662.27 903.46,664.00 903.65,664.00 C903.84,664.00 904.00,515.50 904.00,334.00 L 904.00 878.00 L 0.00 878.00 L 0.00 0.00 L 904.00 0.00 L 904.00 4.00 L 6.00 4.00 L 6.05 660.50 L 8.98 653.65 C12.04,646.46 13.47,644.81 18.67,642.47 C22.51,640.74 25.14,637.17 30.05,627.02 C33.38,620.13 34.31,619.03 38.47,617.01 C43.32,614.67 48.00,610.40 48.00,608.33 C48.00,603.54 58.16,592.86 78.00,576.77 C81.57,573.87 84.66,571.14 84.85,570.71 C85.04,570.27 88.26,567.89 92.01,565.43 C97.97,561.50 99.05,560.30 100.66,555.84 C102.65,550.28 106.69,546.18 116.62,539.60 C119.85,537.46 123.62,534.87 125.00,533.84 C126.38,532.82 129.30,530.80 131.50,529.35 C133.70,527.91 137.80,524.57 140.62,521.93 C146.51,516.41 149.40,515.59 160.12,516.36 C176.45,517.53 180.67,517.68 184.42,517.19 C188.05,516.73 191.87,513.16 235.42,469.54 C279.02,425.88 346.27,358.01 374.32,329.38 C381.15,322.40 386.05,316.62 385.85,315.75 C385.66,314.92 378.49,306.87 369.93,297.87 C349.58,276.47 292.46,215.87 264.03,185.50 C251.67,172.30 236.21,155.90 229.68,149.05 C215.52,134.21 212.99,129.60 213.01,118.63 C213.04,100.69 221.39,85.41 235.25,77.89 C241.28,74.62 241.89,74.50 252.50,74.51 C262.92,74.51 263.85,74.69 270.24,77.83 C280.66,82.94 287.22,88.45 303.99,106.15 C331.00,134.65 342.23,146.39 346.43,150.50 C348.67,152.70 372.96,177.34 400.39,205.25 C427.83,233.16 450.83,256.00 451.50,256.00 C452.17,256.00 454.89,253.64 457.53,250.75 C460.17,247.86 484.66,223.00 511.96,195.50 C539.27,168.00 566.29,140.55 572.02,134.50 C591.38,114.06 623.44,80.68 633.24,70.77 C647.89,55.96 656.96,52.46 674.25,54.96 C684.64,56.47 689.66,58.67 695.79,64.40 C704.69,72.73 708.64,84.52 707.71,100.00 C707.02,111.53 704.49,116.74 694.50,127.21 C680.91,141.45 656.49,167.33 630.98,194.50 C617.55,208.80 602.91,224.32 598.45,229.00 C593.98,233.68 574.50,254.23 555.17,274.69 C535.83,295.14 519.56,312.15 519.01,312.50 C518.45,312.84 518.00,313.69 518.00,314.38 C518.00,315.73 527.78,327.59 537.06,337.50 C540.15,340.80 544.64,345.75 547.04,348.50 C549.43,351.25 570.33,372.62 593.48,396.00 C616.62,419.38 647.70,450.84 662.53,465.93 C677.36,481.02 691.03,494.74 692.90,496.43 C697.02,500.16 714.14,517.34 717.86,521.50 C723.26,527.52 725.31,527.86 748.06,526.57 C764.58,525.64 765.22,525.81 773.89,533.27 C781.71,540.00 786.31,543.58 789.00,545.00 C790.38,545.73 795.41,549.19 800.18,552.69 C808.08,558.48 809.06,559.59 811.14,564.94 C812.66,568.86 814.39,571.43 816.33,572.66 C822.13,576.32 823.84,577.60 831.44,584.00 C835.69,587.58 840.03,590.91 841.09,591.40 C842.14,591.90 843.00,592.89 843.00,593.60 C843.00,594.32 844.91,596.22 847.25,597.83 C854.21,602.63 858.78,607.30 861.47,612.35 C862.86,614.96 864.00,617.71 864.00,618.45 C864.00,620.10 870.56,626.00 872.40,626.00 C875.04,626.00 879.09,630.29 882.01,636.19 C883.66,639.50 885.00,642.88 885.00,643.70 C885.00,645.62 890.47,650.81 895.74,653.90 C898.35,655.43 900.46,657.68 901.57,660.15 ZM 6.67 874.33 C7.03,874.70 45.78,875.00 92.78,875.00 L 178.22 875.00 L 177.74 871.75 C177.48,869.96 176.66,865.18 175.91,861.11 L 174.55 853.73 L 178.63 850.11 C183.56,845.74 184.18,844.22 182.88,839.54 C182.34,837.56 182.15,835.09 182.48,834.06 C183.09,832.13 195.58,821.63 200.00,819.32 C202.70,817.91 212.74,817.55 214.71,818.80 C215.37,819.22 217.08,822.13 218.52,825.26 C219.95,828.40 221.53,831.21 222.01,831.51 C223.88,832.66 225.00,827.75 225.02,818.32 C225.04,801.11 226.88,803.51 230.51,825.50 C233.29,842.34 235.73,846.82 243.50,849.42 C247.82,850.87 252.00,855.79 252.00,859.43 C252.00,861.89 254.61,866.00 256.18,866.00 C256.76,866.00 263.83,861.88 271.87,856.83 C279.92,851.79 288.81,846.65 291.62,845.40 C300.78,841.36 300.67,841.72 301.52,812.26 C301.97,796.45 301.83,777.23 301.15,762.50 C300.54,749.30 299.75,731.40 299.40,722.72 L 298.75 706.94 L 291.92 702.52 C288.16,700.08 283.83,697.37 282.29,696.49 C280.76,695.61 277.70,693.80 275.50,692.46 C267.97,687.89 267.44,688.27 250.77,710.50 C244.99,718.20 238.64,726.45 236.65,728.82 C232.00,734.38 231.24,737.26 229.42,756.00 C228.59,764.53 227.62,773.75 227.26,776.50 L 226.60 781.50 L 226.04 776.38 C225.72,773.56 225.74,764.11 226.08,755.38 C226.61,741.53 226.98,738.93 228.98,735.03 C230.24,732.57 238.46,721.12 247.25,709.59 C256.03,698.05 263.74,687.79 264.36,686.77 C266.15,683.87 269.54,683.54 272.89,685.92 C274.53,687.09 278.94,689.50 282.69,691.27 L 289.50 694.50 L 326.69 694.50 L 334.10 689.60 C347.79,680.54 357.50,672.26 358.86,668.50 C360.40,664.25 362.00,663.95 362.00,667.91 C362.00,670.30 360.45,672.20 353.21,678.66 C348.38,682.97 342.91,687.66 341.04,689.07 C339.18,690.48 337.96,692.12 338.32,692.71 C338.72,693.36 345.80,694.07 356.28,694.51 C372.79,695.19 373.74,695.13 377.04,693.12 C382.96,689.51 386.43,690.24 397.82,697.48 C403.43,701.05 409.93,704.93 412.26,706.10 C420.47,710.22 423.11,712.96 427.03,721.40 C429.09,725.86 432.02,730.62 433.53,732.00 C435.04,733.38 437.52,736.20 439.05,738.29 C441.08,741.04 442.06,741.72 442.67,740.79 C443.13,740.08 443.61,714.08 443.75,683.00 C443.89,651.92 444.11,622.45 444.25,617.50 C444.49,608.91 444.40,608.49 442.31,608.19 C441.10,608.02 434.24,609.78 427.05,612.10 C416.03,615.66 413.60,616.14 411.50,615.18 C408.56,613.84 408.26,610.98 410.82,608.67 C412.39,607.24 420.53,604.55 437.91,599.69 C444.82,597.76 445.68,595.82 448.46,576.00 C451.62,553.53 452.58,531.19 452.53,481.07 L 452.50 440.64 L 448.41 438.07 C446.16,436.66 442.78,434.49 440.91,433.25 C439.03,432.02 436.14,431.01 434.49,431.00 C432.83,431.00 429.79,430.10 427.74,429.00 C425.69,427.90 423.22,426.99 422.25,426.98 C420.76,426.97 420.72,426.83 422.00,426.00 C422.83,425.47 426.54,425.02 430.25,425.02 C435.46,425.00 437.00,425.33 437.00,426.44 C437.00,428.20 454.88,436.84 459.91,437.50 C464.86,438.16 470.50,436.05 470.50,433.54 C470.50,432.08 468.44,430.57 462.50,427.65 C458.10,425.49 453.15,423.38 451.50,422.96 L 448.50 422.20 L 451.45 422.10 C454.64,421.99 482.22,433.36 484.02,435.52 C484.81,436.48 484.69,439.07 483.55,445.03 C482.40,451.10 481.99,460.13 481.95,479.86 C481.92,494.51 481.53,513.92 481.07,523.00 C479.82,547.87 481.68,557.00 487.98,557.00 C489.59,557.00 496.42,554.95 503.16,552.44 C503.96,552.14 504.71,551.86 505.41,551.60 C510.95,549.52 513.69,548.49 516.19,548.90 C518.95,549.36 521.43,551.58 527.06,556.08 C535.81,563.07 540.85,565.66 546.96,566.31 C550.30,566.67 552.01,567.50 553.80,569.64 C557.04,573.54 559.95,579.93 559.98,583.22 C559.99,584.71 560.97,587.80 562.15,590.07 C564.03,593.66 564.55,597.73 566.17,621.35 C567.19,636.28 568.21,649.02 568.44,649.65 C569.03,651.27 578.00,654.07 585.66,655.02 C593.99,656.05 594.92,657.25 594.98,667.00 C595.01,671.12 595.46,675.17 595.99,676.00 C596.79,677.27 600.78,677.50 621.72,677.50 C635.35,677.50 647.06,677.86 647.75,678.31 C650.42,680.04 648.69,680.77 640.75,681.27 C613.90,682.98 600.28,684.33 598.50,685.47 C596.98,686.43 596.25,688.57 595.45,694.29 C594.86,698.49 594.76,702.83 595.22,704.07 C596.03,706.27 596.25,706.29 608.27,705.63 C615.00,705.27 626.80,704.52 634.50,703.97 C642.20,703.43 653.22,703.28 659.00,703.64 C663.19,703.91 665.66,703.85 667.86,704.59 C672.15,706.02 675.44,710.43 688.50,725.97 C695.65,734.47 703.41,743.52 705.75,746.07 L 710.00 750.71 L 710.00 875.00 L 904.00 875.00 L 903.77 693.50 L 901.73 702.27 C899.95,709.89 899.44,710.96 897.84,710.45 C896.59,710.05 896.00,710.37 896.00,711.43 C896.00,712.29 896.67,713.00 897.50,713.00 C899.38,713.00 899.39,714.63 897.53,731.30 C893.28,769.60 892.08,785.60 892.97,792.00 C893.47,795.58 894.38,809.97 895.00,824.00 C895.63,838.29 896.75,852.28 897.56,855.81 C899.55,864.56 899.45,867.00 897.08,867.00 C895.79,867.00 894.97,866.09 894.58,864.25 C893.46,858.93 889.07,807.66 889.03,799.45 C889.01,796.12 888.58,792.97 888.07,792.45 C887.14,791.50 886.63,778.19 887.31,772.50 C887.50,770.85 888.17,767.92 888.78,766.00 C889.92,762.43 891.39,750.19 892.51,735.00 C892.86,730.33 894.27,719.08 895.66,710.00 C897.05,700.92 898.34,690.04 898.53,685.80 C898.72,681.57 899.34,676.41 899.92,674.34 C901.51,668.56 899.82,664.04 894.04,658.63 C891.32,656.09 888.63,654.00 888.08,654.00 C886.68,654.00 882.17,649.08 880.30,645.50 C877.95,641.02 867.41,629.00 865.83,629.00 C865.38,629.00 865.00,631.47 865.00,634.50 C865.00,637.53 864.63,640.00 864.17,640.00 C863.06,640.00 861.26,636.20 860.62,632.50 C859.08,623.58 857.08,615.68 856.10,614.70 C855.50,614.10 855.00,612.84 855.00,611.91 C855.00,610.10 853.06,609.00 849.89,609.00 C848.82,609.00 844.82,607.42 841.00,605.50 C832.75,601.34 831.18,601.10 833.28,604.31 C834.11,605.58 835.11,610.01 835.50,614.16 C836.26,622.23 834.58,628.00 831.47,628.00 C830.27,628.00 830.00,626.15 830.00,618.05 C830.00,608.70 829.84,607.94 827.38,605.30 C823.45,601.10 820.56,597.05 817.51,591.50 C816.00,588.75 811.89,581.44 808.38,575.26 C804.87,569.07 802.00,563.36 802.00,562.56 C802.00,561.76 801.44,560.74 800.75,560.30 C800.06,559.86 798.75,558.15 797.83,556.50 C796.90,554.83 793.15,551.66 789.40,549.36 C785.69,547.08 779.01,541.87 774.57,537.78 C768.76,532.42 766.12,529.86 762.98,528.83 C760.14,527.91 756.89,528.23 750.52,528.86 C750.11,528.90 749.69,528.94 749.25,528.99 C738.09,530.08 729.78,529.87 723.25,528.32 C721.30,527.85 721.00,528.18 721.00,530.77 C721.00,532.41 721.65,534.29 722.44,534.95 C723.23,535.60 724.17,537.50 724.53,539.16 C725.09,541.69 726.34,542.72 732.35,545.62 C736.87,547.80 740.33,548.86 741.75,548.51 C743.03,548.20 745.09,548.67 746.50,549.59 C748.03,550.59 749.00,550.80 749.00,550.11 C749.00,547.73 751.95,549.22 756.92,554.11 C762.93,560.02 763.01,561.71 757.07,556.93 C754.83,555.14 752.68,553.98 752.30,554.37 C751.91,554.75 757.87,561.36 765.54,569.05 C773.22,576.73 779.65,582.55 779.84,581.98 C780.03,581.40 779.45,579.09 778.55,576.84 C776.68,572.16 776.77,571.87 779.79,572.66 C781.26,573.04 782.00,574.00 782.00,575.53 C782.00,579.57 783.08,581.00 786.11,581.00 C787.70,581.00 789.00,581.45 789.00,582.00 C789.00,582.55 788.33,583.00 787.50,583.00 C785.48,583.00 785.55,583.23 789.00,588.34 C790.65,590.79 792.00,593.74 792.00,594.90 C792.00,596.05 792.40,597.00 792.89,597.00 C794.34,597.00 795.12,600.15 794.01,601.48 C792.92,602.80 793.68,608.73 795.18,610.66 C796.45,612.27 794.29,632.21 792.36,636.80 C790.78,640.56 789.21,643.89 787.30,647.50 C786.72,648.60 785.42,652.16 784.40,655.42 C783.20,659.29 781.16,662.85 778.53,665.69 C776.31,668.08 772.86,671.83 770.85,674.02 C768.85,676.21 766.62,678.00 765.91,678.00 C765.19,678.00 766.13,676.42 768.00,674.50 C772.14,670.23 771.12,669.94 766.06,673.95 C763.51,675.97 761.65,676.72 760.17,676.33 C758.93,676.01 756.88,676.50 755.38,677.49 C753.27,678.87 752.59,678.95 751.94,677.90 C751.00,676.39 742.22,676.58 740.31,678.16 C739.66,678.70 738.83,680.48 738.47,682.13 C737.96,684.46 737.35,685.05 735.66,684.81 C733.86,684.55 733.52,683.87 733.61,680.77 C733.76,676.02 729.49,671.36 719.23,665.04 C715.26,662.59 712.00,660.10 712.00,659.51 C712.00,658.23 706.81,655.00 704.76,655.00 C703.06,655.00 701.63,652.23 699.93,645.64 C698.06,638.37 691.30,629.86 684.01,625.59 C680.65,623.61 677.27,622.00 676.51,622.00 C675.74,622.00 674.84,621.55 674.50,621.00 C673.65,619.63 665.67,619.74 662.55,621.16 C660.55,622.07 660.00,623.05 660.00,625.70 C660.00,627.55 660.66,630.07 661.46,631.30 C662.26,632.52 664.29,636.86 665.97,640.94 C667.66,645.02 670.06,649.74 671.32,651.43 C675.00,656.37 677.74,661.52 678.47,664.88 C678.85,666.59 678.92,668.00 678.63,668.00 C678.33,668.00 675.59,663.84 672.54,658.75 C669.48,653.66 663.39,645.22 659.01,640.00 C650.44,629.79 649.83,628.03 652.80,622.10 C654.53,618.64 658.09,616.89 667.00,615.14 L 670.50 614.45 L 655.00 597.96 C646.47,588.90 637.04,578.78 634.03,575.49 C631.03,572.19 621.78,562.30 613.49,553.50 C605.19,544.70 595.73,534.58 592.47,531.00 C589.21,527.42 583.38,521.12 579.52,517.00 C575.66,512.87 567.55,504.10 561.50,497.52 C528.21,461.28 510.89,442.89 488.93,420.50 C478.15,409.50 465.58,396.56 461.01,391.75 C456.44,386.94 452.19,383.00 451.57,383.00 C449.63,383.00 404.88,429.06 372.91,463.96 C366.64,470.81 355.22,483.19 347.55,491.46 C339.87,499.73 331.12,509.20 328.09,512.50 C325.06,515.80 315.56,525.92 306.97,535.00 C298.38,544.08 288.95,554.20 286.00,557.50 C283.06,560.80 273.84,570.70 265.51,579.50 C245.63,600.50 241.62,604.95 242.13,605.47 C242.37,605.70 245.69,606.38 249.53,606.97 C254.45,607.74 257.01,608.67 258.25,610.14 C260.21,612.47 260.50,614.57 259.00,615.50 C257.42,616.48 257.84,618.28 259.50,617.64 C262.17,616.61 261.14,619.94 257.25,624.91 C255.19,627.55 251.25,632.42 248.50,635.74 C245.75,639.06 241.48,645.46 239.00,649.96 C236.52,654.46 231.69,661.98 228.25,666.66 C224.81,671.35 222.00,675.95 222.00,676.89 C222.00,677.83 219.86,681.05 217.24,684.05 C214.62,687.05 210.69,691.75 208.50,694.50 C206.32,697.25 204.19,699.65 203.76,699.83 C203.34,700.02 201.32,702.72 199.27,705.83 C197.22,708.95 195.08,712.04 194.52,712.69 C193.96,713.34 190.35,718.85 186.50,724.92 C180.79,733.94 179.13,735.89 177.49,735.53 C175.05,734.99 173.98,735.68 171.70,739.25 C169.73,742.36 170.47,742.76 173.84,740.40 C175.10,739.52 176.40,739.07 176.73,739.40 C178.76,741.43 139.26,773.96 130.00,777.88 C126.97,779.16 124.05,780.63 123.50,781.15 C122.95,781.67 122.27,789.16 121.99,797.80 C121.50,812.88 121.38,813.66 118.74,817.48 C117.23,819.67 116.00,821.94 116.00,822.53 C116.00,823.12 115.46,824.14 114.80,824.80 C113.19,826.41 108.05,841.11 106.64,848.17 C105.59,853.40 104.00,856.98 104.00,854.11 C104.00,851.15 106.28,838.07 107.58,833.57 C109.27,827.69 109.41,824.63 107.94,825.54 C107.35,825.90 106.38,827.39 105.78,828.85 C104.95,830.87 104.59,831.10 104.28,829.83 C104.06,828.91 105.15,825.83 106.69,822.97 C113.70,810.01 114.94,807.22 115.53,803.00 C115.87,800.53 116.79,796.80 117.58,794.73 C118.36,792.66 119.00,789.17 119.00,786.98 C119.00,783.67 118.66,783.00 117.00,783.00 C115.90,783.00 115.00,782.43 115.00,781.73 C115.00,780.47 116.86,779.38 126.50,775.06 C134.32,771.55 141.38,766.50 147.69,759.88 C150.89,756.54 160.49,746.89 169.03,738.44 C182.10,725.52 184.74,722.41 185.71,718.78 C186.37,716.31 188.34,712.97 190.32,710.98 C192.21,709.07 195.96,704.19 198.63,700.15 C201.31,696.10 204.62,691.15 206.00,689.15 C208.93,684.87 215.55,677.43 222.31,670.81 C228.13,665.11 231.35,660.50 233.11,655.36 C233.84,653.24 236.49,648.35 239.01,644.50 C241.52,640.65 244.41,635.25 245.41,632.50 C246.42,629.75 248.27,625.60 249.54,623.28 C253.41,616.15 253.53,613.74 250.12,611.73 C244.81,608.59 238.41,609.72 227.98,615.63 C221.19,619.48 215.23,627.54 211.82,637.50 C209.93,643.02 208.96,644.57 207.24,644.82 C206.03,644.99 202.90,647.29 200.27,649.92 C197.65,652.56 193.05,656.01 190.06,657.61 C187.08,659.20 183.15,661.89 181.35,663.58 C178.53,666.24 178.15,667.15 178.63,670.13 C179.04,672.63 178.74,673.97 177.56,674.95 C175.57,676.61 174.64,675.74 173.04,670.75 C172.66,669.56 172.46,668.73 171.96,668.15 C170.79,666.77 168.01,666.77 157.56,666.77 C156.91,666.77 156.23,666.77 155.51,666.77 C151.16,666.77 148.87,666.25 147.13,664.89 C143.95,662.39 142.21,662.47 144.51,665.01 C145.50,666.11 146.09,667.25 145.80,667.53 C144.78,668.55 142.45,666.81 139.50,662.83 C137.85,660.60 135.26,657.60 133.75,656.16 C132.04,654.54 131.00,652.51 131.00,650.78 C131.00,649.01 130.47,648.00 129.54,648.00 C128.67,648.00 127.62,646.28 126.93,643.75 C124.65,635.31 124.16,634.81 118.54,635.17 C113.96,635.47 113.47,635.30 113.18,633.25 C112.91,631.38 113.33,631.00 115.68,630.98 C121.17,630.95 121.50,630.04 119.16,621.36 C116.66,612.10 116.20,603.25 117.89,597.02 C118.73,593.93 118.78,592.43 118.06,592.19 C116.52,591.67 116.76,589.44 118.50,588.00 C119.32,587.32 120.00,585.87 120.00,584.78 C120.00,582.86 123.65,576.83 125.21,576.17 C126.22,575.74 126.25,572.92 125.25,573.25 C124.84,573.39 124.37,573.05 124.21,572.50 C124.05,571.95 124.95,571.34 126.21,571.15 C128.91,570.74 129.96,569.35 129.98,566.22 C129.99,564.78 130.83,563.62 132.25,563.08 C133.49,562.62 134.62,562.34 134.76,562.46 C134.90,562.59 134.34,564.63 133.50,567.00 C132.66,569.37 132.22,571.56 132.52,571.86 C132.82,572.16 138.91,566.58 146.05,559.45 C153.18,552.33 158.52,546.34 157.91,546.14 C157.30,545.93 155.46,546.76 153.82,547.97 C152.18,549.18 150.69,550.02 150.50,549.84 C149.95,549.29 155.88,543.00 156.95,543.00 C157.49,543.00 158.41,542.10 159.00,541.00 C160.10,538.94 163.00,538.22 163.00,540.00 C163.00,540.55 165.50,541.00 168.55,541.00 C177.66,541.00 184.28,536.46 188.67,527.21 C192.14,519.90 191.07,518.67 182.00,519.57 C178.32,519.93 169.94,519.71 163.37,519.08 C149.91,517.78 146.62,518.48 141.90,523.66 C138.06,527.87 129.24,536.00 128.51,536.00 C128.15,536.00 126.43,537.09 124.68,538.43 C122.93,539.77 120.27,541.33 118.79,541.89 C117.21,542.49 115.24,544.57 114.06,546.89 C112.94,549.08 111.57,551.15 111.01,551.49 C110.46,551.84 110.00,552.71 110.00,553.43 C110.00,554.16 108.76,556.84 107.25,559.39 C102.98,566.60 99.32,573.04 96.42,578.45 C92.46,585.83 88.90,591.09 85.21,595.00 C82.05,598.36 81.92,598.80 82.06,606.00 C82.14,610.12 82.16,614.74 82.10,616.25 C81.95,620.29 79.20,619.71 77.33,615.25 C75.38,610.61 76.14,598.24 78.60,594.48 C79.50,593.12 79.94,592.00 79.59,592.00 C79.24,592.00 75.82,593.58 72.00,595.50 C68.18,597.42 63.74,599.00 62.15,599.00 C60.55,599.00 58.83,599.56 58.31,600.25 C56.46,602.74 54.12,609.66 52.49,617.50 C51.57,621.90 50.42,626.51 49.93,627.75 C48.41,631.59 47.00,630.23 47.00,624.93 C47.00,620.68 46.72,619.91 45.29,620.18 C43.40,620.55 33.53,632.07 31.76,636.00 C30.18,639.48 25.91,644.00 24.20,644.00 C23.19,644.00 22.96,644.71 23.41,646.50 C23.77,647.94 23.61,649.00 23.02,649.00 C22.46,649.00 22.00,648.33 22.00,647.50 C22.00,644.99 20.69,645.77 16.25,650.94 C11.44,656.52 11.02,658.93 12.90,670.16 C13.51,673.82 13.75,677.48 13.44,678.29 C13.13,679.11 13.58,683.18 14.44,687.35 C16.49,697.29 16.44,699.65 14.15,700.25 C12.58,700.66 12.06,699.67 10.70,693.62 C9.83,689.70 8.82,684.59 8.47,682.26 C8.11,679.92 7.42,677.76 6.91,677.45 C5.86,676.80 5.62,873.28 6.67,874.33 ZM 352.00 840.96 C374.71,842.07 387.19,840.88 390.13,837.34 C391.16,836.10 391.65,829.86 392.11,812.10 C392.44,799.12 392.53,788.01 392.31,787.41 C391.85,786.16 389.39,784.93 371.27,776.88 C363.99,773.65 357.13,771.00 356.02,771.00 C353.50,771.00 345.91,780.99 341.76,789.76 C339.11,795.37 338.60,798.13 336.90,816.07 C335.16,834.34 335.24,838.93 337.29,840.13 C337.40,840.19 344.02,840.57 352.00,840.96 ZM 424.23 543.59 C420.12,545.47 416.19,547.00 415.50,547.00 C411.95,547.00 411.82,545.02 412.85,505.31 C413.75,470.33 414.05,465.86 415.94,460.00 C418.47,452.14 422.66,445.84 426.20,444.60 C430.06,443.24 434.51,445.45 436.55,449.75 C438.09,452.99 438.14,455.22 437.12,474.40 C436.50,486.01 436.00,504.33 436.00,515.12 L 436.00 515.51 C436.00,529.38 436.00,534.78 433.37,538.09 C431.66,540.22 428.86,541.48 424.23,543.59 ZM 295.50 494.11 C305.40,498.67 316.74,494.20 322.20,483.59 C323.79,480.49 324.13,478.26 323.82,472.88 C323.37,464.92 320.24,459.52 313.18,454.56 C307.41,450.50 297.41,449.73 291.26,452.87 C281.38,457.91 277.00,471.20 281.99,480.98 C284.59,486.07 290.48,491.80 295.50,494.11 ZM 430.63 358.53 C435.94,360.43 438.75,360.30 444.00,357.92 C452.97,353.85 457.00,347.68 457.00,338.01 C457.00,330.55 455.44,326.63 450.50,321.70 C445.53,316.73 441.92,314.94 435.64,314.34 C428.75,313.67 420.82,317.61 416.51,323.84 C413.89,327.61 413.50,329.05 413.50,334.91 C413.50,340.67 413.94,342.36 416.50,346.48 C420.04,352.17 425.25,356.61 430.63,358.53 ZM 590.39 189.51 C601.19,194.89 612.63,190.72 618.39,179.30 C622.22,171.69 618.76,157.95 611.65,152.56 C606.97,149.02 598.73,146.63 593.88,147.40 C582.85,149.17 576.00,156.85 576.00,167.46 C576.00,177.18 580.98,184.82 590.39,189.51 ZM 156.16 438.25 C151.42,443.06 147.06,447.00 146.48,447.00 C145.89,447.00 138.76,440.29 130.62,432.09 C129.71,431.17 128.85,430.31 128.04,429.50 C119.87,421.29 116.76,418.16 117.13,415.52 C117.40,413.64 119.44,412.00 122.67,408.94 C134.41,397.87 135.71,397.00 140.60,397.00 C144.45,397.00 145.67,397.50 148.10,400.11 C149.92,402.05 151.00,404.29 151.00,406.11 C151.00,408.76 151.30,409.00 154.60,409.00 C161.59,409.00 167.00,414.65 167.00,421.97 C167.00,426.61 165.69,428.58 156.16,438.25 ZM 373.58 398.08 C381.77,406.29 388.97,413.00 389.56,413.00 C390.16,413.00 394.06,409.50 398.23,405.21 C406.84,396.36 408.57,392.37 407.13,384.64 C404.92,372.81 391.86,362.62 381.15,364.36 C376.43,365.13 371.04,369.09 364.35,376.71 L 358.69 383.16 ZM 550.02 218.14 C558.54,226.28 565.74,232.96 566.03,232.98 C566.31,232.99 569.78,229.74 573.73,225.75 C584.35,215.03 586.14,209.06 581.61,199.50 C577.01,189.79 566.79,183.21 558.14,184.39 C552.36,185.19 547.52,188.55 540.28,196.79 L 534.55 203.32 ZM 324.05 718.25 C357.13,719.58 387.15,718.52 390.34,715.90 C392.49,714.14 392.49,714.12 390.50,712.63 C389.40,711.80 384.00,708.45 378.50,705.18 L 368.50 699.25 L 337.76 698.53 C336.24,698.49 334.80,698.46 333.42,698.42 C313.92,697.96 307.25,697.80 306.37,699.98 C305.91,701.12 307.02,702.88 308.69,705.57 C308.92,705.94 309.16,706.32 309.41,706.72 C311.38,709.92 313.00,713.26 313.00,714.15 C313.00,717.00 315.43,717.91 324.05,718.25 ZM 389.00 776.61 C395.40,778.94 396.00,778.97 429.42,778.74 C450.93,778.59 463.45,778.13 463.66,777.50 C463.97,776.53 459.12,773.63 444.57,766.09 L 437.63 762.50 L 420.07 762.18 C401.83,761.85 368.47,763.20 367.35,764.31 C365.44,766.23 374.41,771.33 389.00,776.61 ZM 516.00 253.13 C524.53,261.29 531.76,267.97 532.08,267.98 C532.39,267.99 533.72,266.86 535.03,265.47 L 537.41 262.94 L 531.20 257.04 C527.79,253.79 525.00,250.79 525.00,250.37 C525.00,249.95 526.21,248.35 527.69,246.80 C529.94,244.45 531.18,244.00 535.44,244.01 C538.22,244.02 543.40,244.71 546.95,245.55 L 553.39 247.07 L 556.32 244.14 C557.93,242.53 558.98,240.78 558.65,240.25 C558.33,239.72 553.30,238.47 547.49,237.48 L 536.93 235.66 L 537.56 231.46 C538.76,223.46 533.92,218.00 525.62,218.00 C519.62,218.00 517.09,219.75 507.39,230.59 L 500.50 238.29 ZM 806.99 855.77 C807.71,860.87 808.05,865.28 807.75,865.59 C806.88,866.46 806.30,864.86 805.57,859.50 C804.77,853.64 799.26,837.21 797.33,834.92 C796.60,834.05 796.00,832.95 796.00,832.48 C796.00,832.00 794.76,829.82 793.25,827.64 C790.59,823.80 790.48,823.14 790.00,807.42 C789.72,798.48 789.28,790.98 789.00,790.77 C788.72,790.55 785.58,789.10 782.00,787.54 C777.72,785.67 770.62,780.74 761.20,773.10 C753.34,766.72 744.96,759.92 742.59,758.00 C740.21,756.08 737.54,753.38 736.66,752.00 C735.77,750.62 731.44,744.02 727.02,737.33 C722.61,730.63 719.00,724.86 719.00,724.50 C719.00,724.13 717.42,721.91 715.50,719.57 C713.58,717.22 712.00,714.94 712.00,714.50 C712.00,714.06 710.17,711.63 707.93,709.10 C696.24,695.88 690.00,687.69 690.00,685.56 C690.00,684.29 689.33,682.68 688.50,682.00 C687.67,681.32 687.01,680.02 687.02,679.13 C687.04,678.07 688.53,679.09 691.27,682.05 C698.22,689.52 704.09,696.62 706.25,700.16 C707.36,702.00 709.11,704.09 710.14,704.81 C711.16,705.53 712.00,706.53 712.00,707.04 C712.00,708.42 719.29,719.00 720.23,719.00 C721.61,719.00 727.00,728.26 727.00,730.62 C727.00,732.18 730.23,735.81 737.75,742.68 C743.66,748.08 751.65,756.06 755.50,760.42 C763.48,769.45 772.11,777.96 773.32,777.98 C773.77,777.99 775.57,779.04 777.32,780.31 C780.66,782.73 784.39,784.63 792.25,787.91 C797.11,789.93 798.77,793.00 795.00,793.00 C792.45,793.00 792.32,796.94 794.64,803.72 C795.53,806.35 796.40,810.41 796.56,812.74 C796.76,815.63 798.82,820.67 803.03,828.56 C806.43,834.92 808.96,840.37 808.67,840.67 C807.84,841.49 806.00,840.04 806.00,838.56 C806.00,837.84 805.33,836.68 804.50,836.00 C803.25,834.96 803.00,835.09 803.00,836.75 C803.00,837.85 803.60,840.49 804.34,842.62 C805.08,844.76 806.27,850.67 806.99,855.77 ZM 176.37 495.93 C174.92,497.07 173.43,498.00 173.07,498.00 C172.01,498.00 143.00,468.45 143.00,467.36 C143.00,466.82 144.36,465.08 146.01,463.49 L 149.03 460.60 L 153.99 465.49 C156.72,468.18 159.09,470.18 159.27,469.94 C159.44,469.70 160.02,468.16 160.55,466.53 C161.80,462.73 167.32,459.00 171.69,459.00 C179.33,459.00 188.12,466.81 189.47,474.81 C189.83,476.95 189.55,480.24 188.80,482.52 C187.77,485.67 186.63,486.91 183.29,488.50 C180.85,489.66 179.06,491.21 179.04,492.18 C179.02,493.10 177.81,494.79 176.37,495.93 ZM 264.49 333.41 C257.07,338.27 246.85,334.72 241.38,325.39 C239.19,321.65 238.84,320.06 239.25,315.76 C239.65,311.59 240.34,310.09 242.89,307.81 C244.62,306.26 246.70,305.00 247.52,305.00 C249.97,305.00 249.21,302.80 245.40,298.90 C241.34,294.74 241.39,292.29 245.58,289.54 L 248.08 287.90 L 262.29 302.57 C270.11,310.63 276.65,317.90 276.84,318.71 C277.36,320.95 272.97,325.13 270.82,324.44 C269.60,324.06 269.00,324.37 269.00,325.39 C269.00,327.98 266.79,331.90 264.49,333.41 ZM 484.69 285.12 C492.97,293.30 500.15,300.00 500.64,300.00 C501.13,300.00 506.41,295.11 512.37,289.13 C523.35,278.11 524.51,275.98 520.76,273.62 C519.29,272.69 517.63,273.90 510.01,281.49 L 500.99 290.46 L 492.63 282.10 L 500.32 274.06 C504.54,269.64 508.00,265.64 508.00,265.17 C508.00,264.70 507.08,263.48 505.96,262.47 C503.95,260.65 503.81,260.74 495.68,268.82 L 487.43 277.03 L 483.55 273.06 L 479.68 269.09 L 488.06 260.50 C495.06,253.33 496.26,251.63 495.36,250.21 C493.50,247.26 490.95,247.65 487.02,251.48 C484.32,254.11 483.12,254.76 482.74,253.76 C482.45,253.00 480.31,251.81 478.00,251.12 C474.09,249.95 473.61,250.02 471.39,252.10 C467.81,255.47 468.44,256.58 474.48,257.59 L 479.97 258.50 L 474.80 264.37 L 469.63 270.23 ZM 285.92 389.67 C277.17,395.46 266.85,392.50 261.89,382.79 C258.29,375.72 259.97,367.87 266.28,362.33 C272.60,356.78 280.35,356.73 286.57,362.20 C291.26,366.31 293.00,369.93 293.00,375.55 C293.00,381.70 290.54,386.62 285.92,389.67 ZM 188.07 590.07 C196.56,598.23 203.73,604.92 204.02,604.95 C204.30,604.98 209.70,599.82 216.01,593.49 C225.76,583.72 227.32,581.72 226.39,580.24 C224.12,576.62 221.68,577.75 213.03,586.46 L 204.56 594.98 L 200.29 590.80 L 196.03 586.61 L 203.59 578.84 C211.24,570.98 212.18,568.77 208.76,566.62 C207.30,565.70 205.80,566.74 199.24,573.26 C194.96,577.52 190.99,581.00 190.42,581.00 C189.86,581.00 187.86,579.42 185.98,577.48 L 182.58 573.97 L 190.89 565.61 C199.34,557.12 200.35,554.88 196.76,552.62 C195.30,551.70 193.76,552.78 186.94,559.51 C182.49,563.91 177.46,569.24 175.75,571.37 L 172.65 575.24 ZM 659.43 136.91 C660.15,138.05 660.77,137.80 662.65,135.62 C663.47,134.67 664.02,134.03 664.25,133.29 C664.71,131.77 663.81,129.83 661.02,123.87 L 661.00 123.82 C659.82,121.31 660.05,120.80 664.62,115.59 C670.14,109.29 671.70,108.91 678.46,112.19 L 682.96 114.38 L 685.48 112.02 C686.87,110.72 688.00,109.15 688.00,108.54 C688.00,107.43 648.72,91.00 646.07,91.00 C644.21,91.00 641.00,93.95 641.00,95.65 C641.00,96.91 657.49,133.82 659.43,136.91 ZM 207.97 465.52 C203.11,468.03 198.55,467.44 195.59,463.92 C192.14,459.82 192.32,456.90 196.50,449.30 C200.51,442.01 200.71,441.00 198.15,441.00 C195.61,441.00 193.00,444.14 193.00,447.21 C193.00,450.13 188.77,453.51 186.30,452.56 C185.08,452.09 184.85,450.79 185.21,446.45 C185.59,441.92 186.25,440.34 188.93,437.58 C193.51,432.84 198.11,430.56 201.38,431.38 C202.85,431.75 207.31,435.32 211.28,439.32 C215.25,443.32 219.62,447.31 221.00,448.19 L 223.50 449.79 L 220.56 452.90 C218.95,454.60 216.90,456.00 216.01,456.00 C215.07,456.00 213.63,457.71 212.61,460.02 C211.60,462.32 209.62,464.66 207.97,465.52 ZM 183.60 410.96 C179.06,412.69 175.24,411.61 172.61,407.85 C169.97,404.08 170.60,399.03 174.47,392.95 C178.47,386.69 178.54,386.42 176.44,385.62 C174.23,384.77 169.99,389.26 170.65,391.76 C171.02,393.17 170.30,394.36 168.18,395.87 C164.38,398.58 164.16,398.55 162.91,395.26 C159.91,387.38 168.87,376.00 178.08,376.00 C180.70,376.00 182.42,377.21 187.88,382.87 C191.52,386.64 195.74,390.52 197.25,391.48 C198.76,392.44 200.00,393.77 200.00,394.44 C200.00,396.34 195.59,400.00 193.31,400.00 C191.86,400.00 191.09,400.82 190.70,402.76 C189.99,406.29 187.09,409.63 183.60,410.96 ZM 293.30 304.69 C287.07,308.46 281.24,307.37 274.63,301.19 C260.81,288.26 275.14,266.96 291.40,276.27 C298.37,280.25 298.33,281.11 290.68,288.82 C284.63,294.92 284.06,295.81 285.50,297.00 C286.67,297.97 287.87,298.08 289.81,297.40 C291.90,296.67 292.61,295.65 293.00,292.81 C293.32,290.44 294.43,288.43 296.16,287.08 C300.27,283.86 301.00,284.41 300.99,290.75 C300.99,297.56 298.94,301.28 293.30,304.69 ZM 18.07 848.37 C17.10,856.73 16.32,858.43 14.11,857.07 C12.71,856.20 12.73,855.91 14.84,845.00 C15.43,841.97 16.40,828.47 16.99,815.00 C17.59,801.53 18.49,787.02 19.01,782.77 C19.77,776.45 19.39,769.56 16.93,745.27 C15.28,728.89 13.65,712.69 13.32,709.25 C12.81,703.99 12.96,703.00 14.27,703.00 C15.13,703.00 16.01,702.46 16.24,701.79 C16.83,700.00 18.87,715.70 20.03,731.04 C21.18,746.21 22.32,754.16 23.94,758.38 C24.55,759.97 24.80,762.07 24.48,763.05 C24.17,764.03 24.33,765.09 24.83,765.39 C25.88,766.05 25.35,777.84 24.03,783.00 C23.54,784.92 22.65,794.60 22.06,804.50 C21.04,821.28 20.41,828.26 18.07,848.37 ZM 334.36 457.96 C340.25,459.77 347.63,458.65 351.76,455.32 C357.96,450.34 360.00,446.52 360.00,439.92 C360.00,436.73 359.56,432.98 359.02,431.57 C357.92,428.66 354.97,428.18 352.63,430.51 C351.28,431.87 351.28,432.42 352.63,435.66 C354.50,440.14 353.85,442.96 349.91,447.45 C345.92,451.99 341.60,452.86 336.34,450.17 C330.89,447.39 324.27,439.95 323.47,435.71 C321.90,427.32 331.85,419.17 339.01,423.00 C340.49,423.80 341.21,423.54 342.44,421.78 C344.44,418.93 344.43,416.38 342.42,415.61 C339.11,414.34 330.41,415.03 326.98,416.83 C325.07,417.84 322.04,420.82 320.25,423.45 C317.49,427.51 317.00,429.11 317.00,434.15 C317.00,438.06 317.67,441.39 318.95,443.90 C321.38,448.66 330.16,456.68 334.36,457.96 ZM 609.25 180.07 C603.31,186.40 597.16,186.23 589.21,179.52 C585.49,176.39 582.00,170.22 582.00,166.79 C582.01,163.80 585.26,158.53 588.35,156.51 C598.00,150.19 613.00,159.11 613.00,171.17 C613.00,175.46 612.53,176.58 609.25,180.07 ZM 308.33 487.64 C306.46,488.42 305.46,488.84 304.46,488.85 C303.31,488.87 302.15,488.34 299.62,487.19 L 299.50 487.13 C294.45,484.82 287.44,477.26 286.53,473.14 C285.10,466.61 292.45,457.97 299.40,458.02 C309.03,458.09 319.62,469.41 317.60,477.48 C316.72,480.97 312.06,486.08 308.33,487.64 ZM 444.96 349.38 C439.02,354.37 429.83,351.74 423.30,343.17 C418.02,336.25 419.04,328.91 425.91,324.28 C429.82,321.65 435.73,321.28 439.80,323.41 C442.90,325.04 448.23,330.47 449.88,333.68 C452.40,338.60 450.47,344.74 444.96,349.38 ZM 312.00 361.14 C312.00,361.96 310.74,363.83 309.20,365.31 L 306.39 368.00 L 295.70 357.15 C289.81,351.19 285.00,345.81 285.00,345.20 C285.00,343.34 289.93,339.04 291.42,339.61 C292.35,339.97 293.03,339.14 293.48,337.08 C294.41,332.84 300.48,328.00 304.86,328.00 C307.81,328.00 309.53,329.24 317.63,337.18 C322.79,342.24 327.00,346.88 327.00,347.50 C327.00,348.12 325.64,349.93 323.98,351.52 L 320.96 354.41 L 312.71 346.21 C308.17,341.69 303.71,338.00 302.79,338.00 C300.96,338.00 298.00,341.61 298.00,343.83 C298.00,344.59 301.15,348.46 305.00,352.43 C308.85,356.40 312.00,360.32 312.00,361.14 ZM 238.39 435.52 C235.74,437.54 233.18,438.48 229.58,438.78 C224.25,439.21 222.98,438.69 223.03,436.08 C223.10,433.00 226.65,430.00 230.26,430.00 C233.91,430.00 237.00,427.56 237.00,424.67 C237.00,422.30 235.89,422.55 228.70,426.50 C221.78,430.31 218.58,430.79 215.36,428.54 C209.29,424.29 210.28,415.76 217.65,408.97 C221.35,405.56 222.59,405.00 226.51,405.00 C231.96,405.00 232.96,406.56 230.34,411.00 C228.97,413.32 227.99,413.96 226.42,413.57 C224.98,413.21 223.48,413.93 221.58,415.91 C217.45,420.23 220.02,420.50 227.27,416.52 C238.42,410.39 245.00,412.68 245.00,422.68 C245.00,428.26 243.12,431.91 238.39,435.52 ZM 342.58 333.51 C338.64,335.82 333.37,336.60 330.25,335.34 C328.43,334.60 328.72,332.21 331.02,328.97 C332.74,326.56 333.54,326.21 336.37,326.67 C339.15,327.12 340.04,326.76 341.87,324.43 C345.54,319.77 342.93,319.03 336.10,322.78 C325.00,328.88 318.00,326.59 318.00,316.86 C318.00,312.04 318.31,311.41 322.86,306.86 C327.41,302.31 328.04,302.00 332.86,302.00 C337.21,302.00 338.00,302.29 338.00,303.87 C338.00,306.87 334.29,310.89 332.06,310.30 C330.81,309.98 329.17,310.74 327.50,312.41 C323.16,316.75 325.59,317.23 333.03,313.49 C344.82,307.55 351.00,309.59 351.00,319.45 C351.00,325.56 348.22,330.20 342.58,333.51 ZM 577.00 208.74 C577.00,211.53 576.01,213.20 571.75,217.62 L 566.50 223.06 L 544.50 202.25 L 546.50 199.98 C550.65,195.26 556.20,192.00 560.07,192.00 C567.11,192.00 577.00,201.78 577.00,208.74 ZM 395.24 398.17 C392.76,400.83 390.44,403.00 390.10,403.00 C388.63,403.00 369.27,382.39 369.69,381.28 C369.94,380.60 372.42,378.24 375.21,376.03 C382.88,369.91 387.79,370.71 395.77,379.36 C402.67,386.85 402.57,390.34 395.24,398.17 ZM 270.98 511.48 L 283.42 523.95 L 285.71 521.80 C286.97,520.62 288.00,519.13 288.00,518.49 C288.00,517.86 282.38,511.82 275.50,505.08 C268.62,498.34 263.00,492.54 263.00,492.20 C263.00,491.86 264.90,489.64 267.23,487.27 C270.71,483.72 271.27,482.65 270.37,481.23 C267.60,476.83 265.45,478.27 250.77,494.29 L 242.72 503.07 L 245.05 505.56 L 247.39 508.04 L 251.98 503.52 C254.50,501.03 257.01,499.00 257.55,499.00 C258.09,499.00 264.13,504.61 270.98,511.48 ZM 263.32 410.84 C259.11,413.07 256.94,412.15 249.61,405.04 C244.26,399.85 241.92,398.21 240.42,398.60 C237.68,399.32 234.56,395.78 235.34,392.82 C235.69,391.46 235.30,389.89 234.34,388.82 C232.95,387.29 232.92,386.51 234.10,382.54 C234.83,380.04 235.88,378.00 236.42,378.00 C236.96,378.00 238.88,379.43 240.68,381.17 C243.77,384.17 244.06,384.26 245.81,382.68 C247.55,381.10 247.79,381.15 250.00,383.50 C252.11,385.75 252.21,386.24 250.99,388.52 C249.70,390.93 249.88,391.31 254.53,396.03 C259.02,400.59 263.00,402.45 263.00,400.00 C263.00,398.37 265.56,398.86 267.35,400.83 C268.26,401.83 269.00,403.34 269.00,404.18 C269.00,406.05 266.23,409.30 263.32,410.84 ZM 360.50 866.90 C362.98,868.34 372.09,867.52 376.00,865.50 C382.89,861.94 385.55,852.72 380.62,849.49 C376.64,846.88 371.77,845.92 366.00,846.62 C361.29,847.18 359.89,847.88 356.25,851.51 C353.91,853.83 352.00,856.61 352.00,857.67 C352.00,859.60 356.68,864.68 360.50,866.90 ZM 620.26 146.89 C628.38,154.65 635.35,160.98 635.76,160.95 C636.17,160.93 640.75,156.91 645.95,152.03 C654.98,143.56 655.34,143.05 654.22,140.58 C652.47,136.75 650.00,137.42 645.17,143.03 C641.53,147.26 639.67,149.68 637.55,149.95 C635.02,150.26 632.11,147.51 625.31,141.10 C624.73,140.54 624.11,139.96 623.46,139.35 C616.54,132.83 610.43,127.34 609.88,127.15 C608.50,126.66 604.86,130.11 605.21,131.58 C605.37,132.24 612.14,139.13 620.26,146.89 ZM 457.83 314.20 L 473.16 329.30 L 482.61 319.90 C492.25,310.31 493.45,307.92 489.75,305.61 C488.28,304.68 486.87,305.65 480.76,311.75 L 473.52 318.99 L 460.76 306.26 C447.38,292.91 446.57,292.49 443.57,297.37 C442.66,298.84 444.83,301.40 457.83,314.20 ZM 219.77 557.10 C228.17,565.30 235.38,572.00 235.79,572.00 C236.20,572.00 240.80,567.72 246.01,562.49 C254.03,554.43 255.31,552.72 254.38,551.24 C252.20,547.78 249.89,548.66 242.91,555.59 L 236.06 562.38 L 223.73 550.19 C216.95,543.49 210.71,538.00 209.86,538.00 C209.01,538.00 207.45,538.95 206.41,540.10 C204.51,542.20 204.53,542.23 219.77,557.10 ZM 379.24 560.50 C376.76,562.97 374.57,565.00 374.37,565.00 C374.17,565.00 374.00,563.02 374.00,560.61 C374.00,553.27 377.83,550.69 390.67,549.37 C394.23,549.01 397.79,548.07 398.57,547.28 C399.76,546.10 400.01,538.90 400.03,504.18 C400.06,473.00 400.37,462.10 401.28,460.90 C402.24,459.64 402.46,469.50 402.33,507.79 C402.17,554.71 402.10,556.35 400.17,558.27 C398.95,559.49 396.72,560.30 394.35,560.38 C391.26,560.48 390.31,560.06 389.52,558.25 C387.92,554.63 384.32,555.41 379.24,560.50 ZM 228.55 367.55 C227.20,368.90 225.51,369.96 224.80,369.91 C223.32,369.80 195.65,341.49 195.22,339.64 C195.06,338.98 196.34,337.10 198.05,335.47 L 201.16 332.50 L 216.04 348.00 C224.22,356.52 230.93,363.86 230.96,364.30 C230.98,364.73 229.90,366.20 228.55,367.55 ZM 213.09 382.91 C211.50,384.61 209.78,386.00 209.28,386.00 C208.00,386.00 180.58,357.06 180.16,355.27 C179.78,353.67 183.72,348.99 185.42,349.01 C186.02,349.02 193.13,355.95 201.24,364.42 L 215.98 379.81 ZM 279.15 874.92 C281.13,877.42 282.23,877.90 286.11,877.94 L 290.73 878.00 L 291.42 867.72 C292.55,850.82 291.73,850.43 275.63,860.21 C262.52,868.17 260.32,870.45 266.76,869.42 C271.46,868.67 275.70,870.55 279.15,874.92 ZM 265.64 778.63 C264.13,779.94 262.07,781.00 261.07,781.00 C257.20,781.00 256.70,778.70 257.22,763.41 C257.64,750.90 257.99,748.48 259.71,746.18 C262.24,742.80 264.59,742.32 267.19,744.66 C269.10,746.39 269.20,747.39 268.81,761.38 C268.39,776.16 268.37,776.29 265.64,778.63 ZM 374.92 861.41 C372.48,863.47 370.78,864.00 366.65,864.00 C358.22,864.00 354.67,859.78 358.50,854.31 C359.70,852.58 361.45,852.04 367.50,851.47 C376.01,850.67 378.00,851.53 378.00,856.03 C378.00,857.92 377.00,859.66 374.92,861.41 ZM 524.81 239.61 C522.00,242.57 519.42,245.00 519.06,245.00 C518.70,245.00 516.63,243.17 514.45,240.92 L 510.50 236.85 L 516.78 230.92 C523.48,224.60 525.46,223.94 529.04,226.83 C532.25,229.43 531.07,232.98 524.81,239.61 ZM 271.90 379.89 C275.17,383.40 279.18,383.97 282.78,381.44 C286.04,379.15 285.61,375.41 281.60,371.40 C273.36,363.16 263.96,371.39 271.90,379.89 ZM 169.00 480.38 C171.20,482.37 173.98,484.00 175.17,484.00 C177.98,484.00 181.00,481.24 181.00,478.69 C181.00,475.82 176.64,470.51 173.07,469.03 C170.47,467.95 169.64,468.01 167.51,469.40 C163.59,471.97 164.14,475.99 169.00,480.38 ZM 251.57 322.63 C255.68,326.51 259.75,327.03 262.46,324.04 C264.89,321.36 263.86,317.96 259.47,314.11 C250.70,306.41 243.08,314.62 251.57,322.63 ZM 500.50 565.32 C504.97,566.32 506.41,565.82 510.34,561.89 L 514.45 557.78 L 512.11 555.89 C510.83,554.85 509.12,554.00 508.32,554.00 C505.48,554.00 492.00,560.21 492.00,561.52 C492.00,562.72 495.10,564.11 500.50,565.32 ZM 264.03 842.94 C262.17,846.42 259.45,845.07 257.98,839.94 C256.90,836.17 256.65,823.08 257.61,820.58 C258.42,818.45 261.73,818.57 262.40,820.75 C263.96,825.84 265.07,841.00 264.03,842.94 ZM 143.69 431.20 C145.16,432.74 146.73,434.00 147.17,434.00 C148.94,434.00 157.00,424.58 157.00,422.52 C157.00,419.90 152.92,417.37 150.73,418.64 C148.47,419.94 141.00,426.90 141.00,427.69 C141.00,428.08 142.21,429.65 143.69,431.20 ZM 714.90 657.06 C719.25,659.94 722.50,660.89 721.83,659.10 C721.65,658.60 718.58,655.11 715.00,651.33 C711.42,647.55 707.37,643.10 705.99,641.43 C701.73,636.31 701.15,636.78 703.73,643.27 C706.57,650.37 708.61,652.89 714.90,657.06 ZM 128.93 415.32 L 134.39 421.02 L 138.28 417.26 C143.39,412.31 144.47,410.27 142.95,408.44 C140.94,406.02 138.16,406.81 133.44,411.16 ZM 74.25 588.88 C69.37,592.52 74.22,591.08 79.93,587.20 C83.61,584.69 86.52,581.58 88.99,577.50 C92.60,571.54 94.30,568.00 93.54,568.00 C93.32,568.00 90.53,570.59 87.32,573.75 C84.12,576.92 79.70,580.96 77.50,582.73 C75.30,584.51 74.29,585.70 75.25,585.37 C77.93,584.47 77.33,586.59 74.25,588.88 ZM 832.36 597.03 C839.61,601.67 841.92,602.13 837.04,597.96 C834.57,595.85 834.07,595.00 835.29,595.00 C838.04,595.00 837.26,593.18 833.75,591.41 C831.96,590.51 828.14,587.27 825.26,584.21 C822.37,581.15 819.75,578.92 819.42,579.25 C819.09,579.58 820.48,582.83 822.52,586.47 C825.53,591.85 827.38,593.83 832.36,597.03 ZM 401.16 358.76 C402.92,360.52 404.00,359.26 404.00,355.48 C404.00,353.09 403.07,351.01 400.90,348.53 C397.33,344.47 396.03,344.21 393.49,347.01 C391.72,348.96 391.74,349.09 394.01,351.51 C395.30,352.88 397.17,354.00 398.17,354.00 C399.27,354.00 400.00,354.72 400.00,355.80 C400.00,356.79 400.52,358.12 401.16,358.76 ZM 663.48 105.96 C663.72,106.35 662.22,108.33 660.15,110.35 L 656.38 114.03 L 653.51 108.03 C651.93,104.73 650.93,101.73 651.29,101.38 C651.97,100.70 662.72,104.74 663.48,105.96 ZM 202.20 456.80 C203.82,458.42 205.00,458.31 207.17,456.35 C209.39,454.33 209.50,452.03 207.50,449.44 C206.03,447.55 205.92,447.58 203.50,450.50 C200.71,453.87 200.46,455.06 202.20,456.80 ZM 179.67 401.33 C181.11,402.78 184.04,401.87 185.59,399.50 C187.12,397.17 187.11,396.82 185.47,394.31 L 183.71 391.63 L 181.36 394.56 C179.03,397.48 178.38,400.05 179.67,401.33 ZM 277.67 289.33 C278.97,290.64 280.67,289.96 283.55,286.95 C285.98,284.41 286.22,283.75 284.98,282.97 C282.90,281.65 281.77,281.77 279.22,283.56 C277.07,285.06 276.29,287.96 277.67,289.33 ZM 377.29 579.18 C378.34,580.59 379.04,582.51 378.85,583.44 C378.56,584.86 378.04,584.66 375.75,582.27 C372.98,579.37 371.98,575.49 374.19,576.23 C374.84,576.45 376.24,577.78 377.29,579.18 ZM 370.52 613.60 C368.81,616.97 364.09,622.87 364.04,621.71 C363.96,620.14 367.83,613.46 369.89,611.60 C372.39,609.34 372.50,609.70 370.52,613.60 ZM 62.50 595.00 C63.29,596.28 64.63,596.27 67.07,594.96 C69.07,593.89 69.71,592.00 68.07,592.00 C65.81,592.00 61.94,594.09 62.50,595.00 ZM 377.78 597.50 C377.80,603.12 376.73,607.99 375.80,606.49 C375.47,605.94 375.77,602.57 376.48,599.00 L 377.76 592.50 ZM 140.33 558.40 C137.35,561.16 135.58,561.77 136.23,559.81 C136.77,558.18 141.83,554.50 142.55,555.22 C142.87,555.54 141.87,556.97 140.33,558.40 ZM 776.00 570.19 C776.00,571.40 775.72,571.25 771.96,568.04 C769.45,565.90 768.97,565.07 770.21,565.04 C771.91,565.00 776.00,568.64 776.00,570.19 ZM 845.20 604.19 C847.83,606.21 848.65,606.38 849.45,605.08 C850.11,604.02 844.43,600.90 843.52,601.82 C843.18,602.15 843.94,603.22 845.20,604.19 ZM 702.00 699.50 C702.00,700.33 702.45,701.00 703.00,701.00 C703.55,701.00 704.00,700.33 704.00,699.50 C704.00,698.67 703.55,698.00 703.00,698.00 C702.45,698.00 702.00,698.67 702.00,699.50 Z" fill="rgb(2,6,1)"/>
<path d="M 901.57 660.15 C900.46,657.68 898.35,655.43 895.74,653.90 C890.47,650.81 885.00,645.62 885.00,643.70 C885.00,642.88 883.66,639.50 882.01,636.19 C879.09,630.29 875.04,626.00 872.40,626.00 C870.56,626.00 864.00,620.10 864.00,618.45 C864.00,617.71 862.86,614.96 861.47,612.35 C858.78,607.30 854.21,602.63 847.25,597.83 C844.91,596.22 843.00,594.32 843.00,593.60 C843.00,592.89 842.14,591.90 841.09,591.40 C840.03,590.91 835.69,587.58 831.44,584.00 C823.84,577.60 822.13,576.32 816.33,572.66 C814.39,571.43 812.66,568.86 811.14,564.94 C809.06,559.59 808.08,558.48 800.18,552.69 C795.41,549.19 790.38,545.73 789.00,545.00 C786.31,543.58 781.71,540.00 773.89,533.27 C765.22,525.81 764.58,525.64 748.06,526.57 C725.31,527.86 723.26,527.52 717.86,521.50 C714.14,517.34 697.02,500.16 692.90,496.43 C691.03,494.74 677.36,481.02 662.53,465.93 C647.70,450.84 616.62,419.38 593.48,396.00 C570.33,372.62 549.43,351.25 547.04,348.50 C544.64,345.75 540.15,340.80 537.06,337.50 C527.78,327.59 518.00,315.73 518.00,314.38 C518.00,313.69 518.45,312.84 519.01,312.50 C519.56,312.15 535.83,295.14 555.17,274.69 C574.50,254.23 593.98,233.68 598.45,229.00 C602.91,224.32 617.55,208.80 630.98,194.50 C656.49,167.33 680.91,141.45 694.50,127.21 C704.49,116.74 707.02,111.53 707.71,100.00 C708.64,84.52 704.69,72.73 695.79,64.40 C689.66,58.67 684.64,56.47 674.25,54.96 C656.96,52.46 647.89,55.96 633.24,70.77 C623.44,80.68 591.38,114.06 572.02,134.50 C566.29,140.55 539.27,168.00 511.96,195.50 C484.66,223.00 460.17,247.86 457.53,250.75 C454.89,253.64 452.17,256.00 451.50,256.00 C450.83,256.00 427.83,233.16 400.39,205.25 C372.96,177.34 348.67,152.70 346.43,150.50 C342.23,146.39 331.00,134.65 303.99,106.15 C287.22,88.45 280.66,82.94 270.24,77.83 C263.85,74.69 262.92,74.51 252.50,74.51 C241.89,74.50 241.28,74.62 235.25,77.89 C221.39,85.41 213.04,100.69 213.01,118.63 C212.99,129.60 215.52,134.21 229.68,149.05 C236.21,155.90 251.67,172.30 264.03,185.50 C292.46,215.87 349.58,276.47 369.93,297.87 C378.49,306.87 385.66,314.92 385.85,315.75 C386.05,316.62 381.15,322.40 374.32,329.38 C346.27,358.01 279.02,425.88 235.42,469.54 C191.87,513.16 188.05,516.73 184.42,517.19 C180.67,517.68 176.45,517.53 160.12,516.36 C149.40,515.59 146.51,516.41 140.62,521.93 C137.80,524.57 133.70,527.91 131.50,529.35 C129.30,530.80 126.38,532.82 125.00,533.84 C123.62,534.87 119.85,537.46 116.62,539.60 C106.69,546.18 102.65,550.28 100.66,555.84 C99.05,560.30 97.97,561.50 92.01,565.43 C88.26,567.89 85.04,570.27 84.85,570.71 C84.66,571.14 81.57,573.87 78.00,576.77 C58.16,592.86 48.00,603.54 48.00,608.33 C48.00,610.40 43.32,614.67 38.47,617.01 C34.31,619.03 33.38,620.13 30.05,627.02 C25.14,637.17 22.51,640.74 18.67,642.47 C13.47,644.81 12.04,646.46 8.98,653.65 L 6.05 660.50 L 6.00 4.00 L 904.00 4.00 L 904.00 334.00 C904.00,515.50 903.84,664.00 903.65,664.00 C903.46,664.00 902.52,662.27 901.57,660.15 ZM 6.67 874.33 C5.62,873.28 5.86,676.80 6.91,677.45 C7.42,677.76 8.11,679.92 8.47,682.26 C8.82,684.59 9.83,689.70 10.70,693.62 C12.06,699.67 12.58,700.66 14.15,700.25 C16.44,699.65 16.49,697.29 14.44,687.35 C13.58,683.18 13.13,679.11 13.44,678.29 C13.75,677.48 13.51,673.82 12.90,670.16 C11.02,658.93 11.44,656.52 16.25,650.94 C20.69,645.77 22.00,644.99 22.00,647.50 C22.00,648.33 22.46,649.00 23.02,649.00 C23.61,649.00 23.77,647.94 23.41,646.50 C22.96,644.71 23.19,644.00 24.20,644.00 C25.91,644.00 30.18,639.48 31.76,636.00 C33.53,632.07 43.40,620.55 45.29,620.18 C46.72,619.91 47.00,620.68 47.00,624.93 C47.00,630.23 48.41,631.59 49.93,627.75 C50.42,626.51 51.57,621.90 52.49,617.50 C54.12,609.66 56.46,602.74 58.31,600.25 C58.83,599.56 60.55,599.00 62.15,599.00 C63.74,599.00 68.18,597.42 72.00,595.50 C75.82,593.58 79.24,592.00 79.59,592.00 C79.94,592.00 79.50,593.12 78.60,594.48 C76.14,598.24 75.38,610.61 77.33,615.25 C79.20,619.71 81.95,620.29 82.10,616.25 C82.16,614.74 82.14,610.12 82.06,606.00 C81.92,598.80 82.05,598.36 85.21,595.00 C88.90,591.09 92.46,585.83 96.42,578.45 C99.32,573.04 102.98,566.60 107.25,559.39 C108.76,556.84 110.00,554.16 110.00,553.43 C110.00,552.71 110.46,551.84 111.01,551.49 C111.57,551.15 112.94,549.08 114.06,546.89 C115.24,544.57 117.21,542.49 118.79,541.89 C120.27,541.33 122.93,539.77 124.68,538.43 C126.43,537.09 128.15,536.00 128.51,536.00 C129.24,536.00 138.06,527.87 141.90,523.66 C146.62,518.48 149.91,517.78 163.37,519.08 C169.94,519.71 178.32,519.93 182.00,519.57 C191.07,518.67 192.14,519.90 188.67,527.21 C184.28,536.46 177.66,541.00 168.55,541.00 C165.50,541.00 163.00,540.55 163.00,540.00 C163.00,538.22 160.10,538.94 159.00,541.00 C158.41,542.10 157.49,543.00 156.95,543.00 C155.88,543.00 149.95,549.29 150.50,549.84 C150.69,550.02 152.18,549.18 153.82,547.97 C155.46,546.76 157.30,545.93 157.91,546.14 C158.52,546.34 153.18,552.33 146.05,559.45 C138.91,566.58 132.82,572.16 132.52,571.86 C132.22,571.56 132.66,569.37 133.50,567.00 C134.34,564.63 134.90,562.59 134.76,562.46 C134.62,562.34 133.49,562.62 132.25,563.08 C130.83,563.62 129.99,564.78 129.98,566.22 C129.96,569.35 128.91,570.74 126.21,571.15 C124.95,571.34 124.05,571.95 124.21,572.50 C124.37,573.05 124.84,573.39 125.25,573.25 C126.25,572.92 126.22,575.74 125.21,576.17 C123.65,576.83 120.00,582.86 120.00,584.78 C120.00,585.87 119.32,587.32 118.50,588.00 C116.76,589.44 116.52,591.67 118.06,592.19 C118.78,592.43 118.73,593.93 117.89,597.02 C116.20,603.25 116.66,612.10 119.16,621.36 C121.50,630.04 121.17,630.95 115.68,630.98 C113.33,631.00 112.91,631.38 113.18,633.25 C113.47,635.30 113.96,635.47 118.54,635.17 C124.16,634.81 124.65,635.31 126.93,643.75 C127.62,646.28 128.67,648.00 129.54,648.00 C130.47,648.00 131.00,649.01 131.00,650.78 C131.00,652.51 132.04,654.54 133.75,656.16 C135.26,657.60 137.85,660.60 139.50,662.83 C142.45,666.81 144.78,668.55 145.80,667.53 C146.09,667.25 145.50,666.11 144.51,665.01 C142.21,662.47 143.95,662.39 147.13,664.89 C148.87,666.25 151.16,666.77 155.51,666.77 C156.23,666.77 156.91,666.77 157.56,666.77 L 157.56 666.77 C168.01,666.77 170.79,666.77 171.96,668.15 C172.46,668.73 172.66,669.56 173.04,670.75 C174.64,675.74 175.57,676.61 177.56,674.95 C178.74,673.97 179.04,672.63 178.63,670.13 C178.15,667.15 178.53,666.24 181.35,663.58 C183.15,661.89 187.08,659.20 190.06,657.61 C193.05,656.01 197.65,652.56 200.27,649.92 C202.90,647.29 206.03,644.99 207.24,644.82 C208.96,644.57 209.93,643.02 211.82,637.50 C215.23,627.54 221.19,619.48 227.98,615.63 C238.41,609.72 244.81,608.59 250.12,611.73 C253.53,613.74 253.41,616.15 249.54,623.28 C248.27,625.60 246.42,629.75 245.41,632.50 C244.41,635.25 241.52,640.65 239.01,644.50 C236.49,648.35 233.84,653.24 233.11,655.36 C231.35,660.50 228.13,665.11 222.31,670.81 C215.55,677.43 208.93,684.87 206.00,689.15 C204.62,691.15 201.31,696.10 198.63,700.15 C195.96,704.19 192.21,709.07 190.32,710.98 C188.34,712.97 186.37,716.31 185.71,718.78 C184.74,722.41 182.10,725.52 169.03,738.44 C160.49,746.89 150.89,756.54 147.69,759.88 C141.38,766.50 134.32,771.55 126.50,775.06 C116.86,779.38 115.00,780.47 115.00,781.73 C115.00,782.43 115.90,783.00 117.00,783.00 C118.66,783.00 119.00,783.67 119.00,786.98 C119.00,789.17 118.36,792.66 117.58,794.73 C116.79,796.80 115.87,800.53 115.53,803.00 C114.94,807.22 113.70,810.01 106.69,822.97 C105.15,825.83 104.06,828.91 104.28,829.83 C104.59,831.10 104.95,830.87 105.78,828.85 C106.38,827.39 107.35,825.90 107.94,825.54 C109.41,824.63 109.27,827.69 107.58,833.57 C106.28,838.07 104.00,851.15 104.00,854.11 C104.00,856.98 105.59,853.40 106.64,848.17 C108.05,841.11 113.19,826.41 114.80,824.80 C115.46,824.14 116.00,823.12 116.00,822.53 C116.00,821.94 117.23,819.67 118.74,817.48 C121.38,813.66 121.50,812.88 121.99,797.80 C122.27,789.16 122.95,781.67 123.50,781.15 C124.05,780.63 126.97,779.16 130.00,777.88 C139.26,773.96 178.76,741.43 176.73,739.40 C176.40,739.07 175.10,739.52 173.84,740.40 C170.47,742.76 169.73,742.36 171.70,739.25 C173.98,735.68 175.05,734.99 177.49,735.53 C179.13,735.89 180.79,733.94 186.50,724.92 C190.35,718.85 193.96,713.34 194.52,712.69 C195.08,712.04 197.22,708.95 199.27,705.83 C201.32,702.72 203.34,700.02 203.76,699.83 C204.19,699.65 206.32,697.25 208.50,694.50 C210.69,691.75 214.62,687.05 217.24,684.05 C219.86,681.05 222.00,677.83 222.00,676.89 C222.00,675.95 224.81,671.35 228.25,666.66 C231.69,661.98 236.52,654.46 239.00,649.96 C241.48,645.46 245.75,639.06 248.50,635.74 C251.25,632.42 255.19,627.55 257.25,624.91 C261.14,619.94 262.17,616.61 259.50,617.64 C257.84,618.28 257.42,616.48 259.00,615.50 C260.50,614.57 260.21,612.47 258.25,610.14 C257.01,608.67 254.45,607.74 249.53,606.97 C245.69,606.38 242.37,605.70 242.13,605.47 C241.62,604.95 245.63,600.50 265.51,579.50 C273.84,570.70 283.06,560.80 286.00,557.50 C288.95,554.20 298.38,544.08 306.97,535.00 C315.56,525.92 325.06,515.80 328.09,512.50 C331.12,509.20 339.87,499.73 347.55,491.46 C355.22,483.19 366.64,470.81 372.91,463.96 C404.88,429.06 449.63,383.00 451.57,383.00 C452.19,383.00 456.44,386.94 461.01,391.75 C465.58,396.56 478.15,409.50 488.93,420.50 C510.89,442.89 528.21,461.28 561.50,497.52 C567.55,504.10 575.66,512.87 579.52,517.00 C583.38,521.12 589.21,527.42 592.47,531.00 C595.73,534.58 605.19,544.70 613.49,553.50 C621.78,562.30 631.03,572.19 634.03,575.49 C637.04,578.78 646.47,588.90 655.00,597.96 L 670.50 614.45 L 667.00 615.14 C658.09,616.89 654.53,618.64 652.80,622.10 C649.83,628.03 650.44,629.79 659.01,640.00 C663.39,645.22 669.48,653.66 672.54,658.75 C675.59,663.84 678.33,668.00 678.63,668.00 C678.92,668.00 678.85,666.59 678.47,664.88 C677.74,661.52 675.00,656.37 671.32,651.43 C670.06,649.74 667.66,645.02 665.97,640.94 C664.29,636.86 662.26,632.52 661.46,631.30 C660.66,630.07 660.00,627.55 660.00,625.70 C660.00,623.05 660.55,622.07 662.55,621.16 C665.67,619.74 673.65,619.63 674.50,621.00 C674.84,621.55 675.74,622.00 676.51,622.00 C677.27,622.00 680.65,623.61 684.01,625.59 C691.30,629.86 698.06,638.37 699.93,645.64 C701.63,652.23 703.06,655.00 704.76,655.00 C706.81,655.00 712.00,658.23 712.00,659.51 C712.00,660.10 715.26,662.59 719.23,665.04 C729.49,671.36 733.76,676.02 733.61,680.77 C733.52,683.87 733.86,684.55 735.66,684.81 C737.35,685.05 737.96,684.46 738.47,682.13 C738.83,680.48 739.66,678.70 740.31,678.16 C742.22,676.58 751.00,676.39 751.94,677.90 C752.59,678.95 753.27,678.87 755.38,677.49 C756.88,676.50 758.93,676.01 760.17,676.33 C761.65,676.72 763.51,675.97 766.06,673.95 C771.12,669.94 772.14,670.23 768.00,674.50 C766.13,676.42 765.19,678.00 765.91,678.00 C766.62,678.00 768.85,676.21 770.85,674.02 C772.86,671.83 776.31,668.08 778.53,665.69 C781.16,662.85 783.20,659.29 784.40,655.42 C785.42,652.16 786.72,648.60 787.30,647.50 C789.21,643.89 790.78,640.56 792.36,636.80 C794.29,632.21 796.45,612.27 795.18,610.66 C793.68,608.73 792.92,602.80 794.01,601.48 C795.12,600.15 794.34,597.00 792.89,597.00 C792.40,597.00 792.00,596.05 792.00,594.90 C792.00,593.74 790.65,590.79 789.00,588.34 C785.55,583.23 785.48,583.00 787.50,583.00 C788.33,583.00 789.00,582.55 789.00,582.00 C789.00,581.45 787.70,581.00 786.11,581.00 C783.08,581.00 782.00,579.57 782.00,575.53 C782.00,574.00 781.26,573.04 779.79,572.66 C776.77,571.87 776.68,572.16 778.55,576.84 C779.45,579.09 780.03,581.40 779.84,581.98 C779.65,582.55 773.22,576.73 765.54,569.05 C757.87,561.36 751.91,554.75 752.30,554.37 C752.68,553.98 754.83,555.14 757.07,556.93 C763.01,561.71 762.93,560.02 756.92,554.11 C751.95,549.22 749.00,547.73 749.00,550.11 C749.00,550.80 748.03,550.59 746.50,549.59 C745.09,548.67 743.03,548.20 741.75,548.51 C740.33,548.86 736.87,547.80 732.35,545.62 C726.34,542.72 725.09,541.69 724.53,539.16 C724.17,537.50 723.23,535.60 722.44,534.95 C721.65,534.29 721.00,532.41 721.00,530.77 C721.00,528.18 721.30,527.85 723.25,528.32 C729.78,529.87 738.09,530.08 749.25,528.99 C749.69,528.94 750.11,528.90 750.52,528.86 C756.89,528.23 760.14,527.91 762.98,528.83 C766.12,529.86 768.76,532.42 774.57,537.78 C779.01,541.87 785.69,547.08 789.40,549.36 C793.15,551.66 796.90,554.83 797.83,556.50 C798.75,558.15 800.06,559.86 800.75,560.30 C801.44,560.74 802.00,561.76 802.00,562.56 C802.00,563.36 804.87,569.07 808.38,575.26 C811.89,581.44 816.00,588.75 817.51,591.50 C820.56,597.05 823.45,601.10 827.38,605.30 C829.84,607.94 830.00,608.70 830.00,618.05 C830.00,626.15 830.27,628.00 831.47,628.00 C834.58,628.00 836.26,622.23 835.50,614.16 C835.11,610.01 834.11,605.58 833.28,604.31 C831.18,601.10 832.75,601.34 841.00,605.50 C844.82,607.42 848.82,609.00 849.89,609.00 C853.06,609.00 855.00,610.10 855.00,611.91 C855.00,612.84 855.50,614.10 856.10,614.70 C857.08,615.68 859.08,623.58 860.62,632.50 C861.26,636.20 863.06,640.00 864.17,640.00 C864.63,640.00 865.00,637.53 865.00,634.50 C865.00,631.47 865.38,629.00 865.83,629.00 C867.41,629.00 877.95,641.02 880.30,645.50 C882.17,649.08 886.68,654.00 888.08,654.00 C888.63,654.00 891.32,656.09 894.04,658.63 C899.82,664.04 901.51,668.56 899.92,674.34 C899.34,676.41 898.72,681.57 898.53,685.80 C898.34,690.04 897.05,700.92 895.66,710.00 C894.27,719.08 892.86,730.33 892.51,735.00 C891.39,750.19 889.92,762.43 888.78,766.00 C888.17,767.92 887.50,770.85 887.31,772.50 C886.63,778.19 887.14,791.50 888.07,792.45 C888.58,792.97 889.01,796.12 889.03,799.45 C889.07,807.66 893.46,858.93 894.58,864.25 C894.97,866.09 895.79,867.00 897.08,867.00 C899.45,867.00 899.55,864.56 897.56,855.81 C896.75,852.28 895.63,838.29 895.00,824.00 C894.38,809.97 893.47,795.58 892.97,792.00 C892.08,785.60 893.28,769.60 897.53,731.30 C899.39,714.63 899.38,713.00 897.50,713.00 C896.67,713.00 896.00,712.29 896.00,711.43 C896.00,710.37 896.59,710.05 897.84,710.45 C899.44,710.96 899.95,709.89 901.73,702.27 L 903.77 693.50 L 904.00 875.00 L 710.00 875.00 L 710.00 750.71 L 705.75 746.07 C703.41,743.52 695.65,734.47 688.50,725.97 C675.44,710.43 672.15,706.02 667.86,704.59 C665.66,703.85 663.19,703.91 659.00,703.64 C656.69,703.50 653.55,703.43 650.12,703.44 C654.55,703.32 659.56,703.19 665.30,703.06 C668.75,702.99 668.52,702.53 660.32,693.39 C656.93,689.60 653.27,685.49 652.21,684.25 C650.47,682.23 649.35,682.00 641.38,682.00 C626.72,681.99 601.20,684.05 598.57,685.42 C600.63,684.30 614.24,682.96 640.75,681.27 C648.69,680.77 650.42,680.04 647.75,678.31 C647.06,677.86 635.35,677.50 621.72,677.50 C600.78,677.50 596.79,677.27 595.99,676.00 C595.46,675.17 595.01,671.12 594.98,667.00 C594.92,657.25 593.99,656.05 585.66,655.02 C578.00,654.07 569.03,651.27 568.44,649.65 C568.21,649.02 567.19,636.28 566.17,621.35 C564.55,597.73 564.03,593.66 562.15,590.07 C560.97,587.80 559.99,584.71 559.98,583.22 C559.95,579.93 557.04,573.54 553.80,569.64 C552.01,567.50 550.30,566.67 546.96,566.31 C540.85,565.66 535.81,563.07 527.06,556.08 C521.43,551.58 518.95,549.36 516.19,548.90 C513.69,548.49 510.95,549.52 505.41,551.60 C504.71,551.86 503.96,552.14 503.16,552.44 C496.42,554.95 489.59,557.00 487.98,557.00 C481.68,557.00 479.82,547.87 481.07,523.00 C481.53,513.92 481.92,494.51 481.95,479.86 C481.99,460.13 482.40,451.10 483.55,445.03 C484.69,439.07 484.81,436.48 484.02,435.52 C482.22,433.36 454.64,421.99 451.45,422.10 L 448.50 422.20 L 451.50 422.96 C453.15,423.38 458.10,425.49 462.50,427.65 C463.70,428.24 464.74,428.77 465.63,429.25 C465.20,429.07 464.74,428.89 464.25,428.69 C461.91,427.76 458.24,426.28 456.10,425.39 C452.74,424.01 451.21,423.95 445.05,424.99 C440.52,425.76 438.04,426.62 438.28,427.35 C438.49,427.99 441.95,430.04 446.13,432.17 C441.21,429.77 437.00,427.29 437.00,426.44 C437.00,425.33 435.46,425.00 430.25,425.02 C426.54,425.02 422.83,425.47 422.00,426.00 C420.72,426.83 420.76,426.97 422.25,426.98 C423.22,426.99 425.69,427.90 427.74,429.00 C428.15,429.22 428.60,429.43 429.07,429.63 C426.83,429.09 424.46,428.53 423.50,428.34 C421.81,427.99 420.06,430.63 412.14,445.49 L 402.77 463.05 L 402.35 509.78 C402.33,511.38 402.32,512.92 402.31,514.42 C402.31,512.32 402.32,510.11 402.33,507.79 C402.46,469.50 402.24,459.64 401.28,460.90 C400.37,462.10 400.06,473.00 400.03,504.18 C400.01,538.90 399.76,546.10 398.57,547.28 C397.79,548.07 394.23,549.01 390.67,549.37 C377.83,550.69 374.00,553.27 374.00,560.61 C374.00,563.02 374.17,565.00 374.37,565.00 C374.57,565.00 376.71,563.02 379.15,560.59 C375.03,565.63 372.45,573.92 375.01,575.51 C375.57,575.85 376.89,577.82 377.94,579.88 C379.67,583.28 379.76,584.66 378.92,594.57 C377.82,607.49 377.67,608.00 375.03,608.00 C373.87,608.00 373.00,608.66 373.00,609.54 C373.00,610.39 372.15,612.30 371.12,613.79 C370.09,615.28 367.78,618.84 365.99,621.69 L 362.74 626.88 L 362.52 643.69 C362.40,652.94 362.22,661.17 362.11,662.00 C362.01,662.83 362.23,664.79 362.60,666.37 C363.11,668.52 362.77,669.51 358.88,673.36 C361.34,670.82 362.00,669.47 362.00,667.91 C362.00,663.95 360.40,664.25 358.86,668.50 C357.50,672.26 347.79,680.54 334.10,689.60 L 326.69 694.50 L 289.50 694.50 L 282.69 691.27 C278.94,689.50 274.53,687.09 272.89,685.92 C269.54,683.54 266.15,683.87 264.36,686.77 C263.74,687.79 256.03,698.05 247.25,709.59 C238.46,721.12 230.24,732.57 228.98,735.03 C226.98,738.93 226.61,741.53 226.08,755.38 C225.74,764.11 225.72,773.56 226.04,776.38 L 226.60 781.50 L 227.26 776.50 C227.62,773.75 228.59,764.53 229.42,756.00 C230.32,746.75 230.96,741.36 231.94,737.61 C229.79,748.63 226.72,788.48 227.35,800.00 C227.63,805.28 228.56,813.17 229.68,820.62 C226.60,803.25 225.04,802.48 225.02,818.32 C225.00,827.75 223.88,832.66 222.01,831.51 C221.53,831.21 219.95,828.40 218.52,825.26 C217.08,822.13 215.37,819.22 214.71,818.80 C212.74,817.55 202.70,817.91 200.00,819.32 C195.58,821.63 183.09,832.13 182.48,834.06 C182.15,835.09 182.34,837.56 182.88,839.54 C184.18,844.22 183.56,845.74 178.63,850.11 L 174.55 853.73 L 175.91 861.11 C176.66,865.18 177.48,869.96 177.74,871.75 L 178.22 875.00 L 92.78 875.00 C45.78,875.00 7.03,874.70 6.67,874.33 ZM 473.42 213.52 C473.76,214.88 474.56,216.00 475.20,216.00 C475.84,216.00 485.05,207.34 495.67,196.75 C509.94,182.53 515.25,176.59 515.99,174.00 C517.10,170.12 517.40,48.11 516.33,31.75 L 515.70 22.00 L 495.41 22.00 C480.26,22.00 474.92,22.32 474.34,23.25 C473.41,24.74 472.51,209.93 473.42,213.52 ZM 406.19 196.42 C417.30,207.74 426.98,217.00 427.70,217.00 C428.77,217.00 428.96,199.33 428.75,119.75 L 428.50 22.50 L 386.50 22.50 L 385.99 175.85 ZM 316.95 106.40 C328.20,117.73 337.75,127.00 338.17,127.00 C339.04,127.00 339.63,82.42 339.23,46.25 L 338.97 22.00 L 318.00 22.00 C297.10,22.00 297.04,22.01 296.47,24.25 C296.16,25.49 296.04,39.84 296.21,56.15 L 296.50 85.80 ZM 563.24 74.75 C563.07,109.07 563.33,127.00 563.98,127.00 C564.53,127.00 574.22,117.68 585.50,106.29 L 606.03 85.58 L 605.76 54.04 L 605.50 22.50 L 563.50 22.50 ZM 156.16 438.25 C165.69,428.58 167.00,426.61 167.00,421.97 C167.00,414.65 161.59,409.00 154.60,409.00 C151.30,409.00 151.00,408.76 151.00,406.11 C151.00,404.29 149.92,402.05 148.10,400.11 C145.67,397.50 144.45,397.00 140.60,397.00 C135.71,397.00 134.41,397.87 122.67,408.94 C119.44,412.00 117.40,413.64 117.13,415.52 C116.76,418.16 119.87,421.29 128.04,429.50 C128.85,430.31 129.71,431.17 130.62,432.09 C138.76,440.29 145.89,447.00 146.48,447.00 C147.06,447.00 151.42,443.06 156.16,438.25 ZM 806.99 855.77 C806.27,850.67 805.08,844.76 804.34,842.62 C803.60,840.49 803.00,837.85 803.00,836.75 C803.00,835.09 803.25,834.96 804.50,836.00 C805.33,836.68 806.00,837.84 806.00,838.56 C806.00,840.04 807.84,841.49 808.67,840.67 C808.96,840.37 806.43,834.92 803.03,828.56 C798.82,820.67 796.76,815.63 796.56,812.74 C796.40,810.41 795.53,806.35 794.64,803.72 C792.32,796.94 792.45,793.00 795.00,793.00 C798.77,793.00 797.11,789.93 792.25,787.91 C784.39,784.63 780.66,782.73 777.32,780.31 C775.57,779.04 773.77,777.99 773.32,777.98 C772.11,777.96 763.48,769.45 755.50,760.42 C751.65,756.06 743.66,748.08 737.75,742.68 C730.23,735.81 727.00,732.18 727.00,730.62 C727.00,728.26 721.61,719.00 720.23,719.00 C719.29,719.00 712.00,708.42 712.00,707.04 C712.00,706.53 711.16,705.53 710.14,704.81 C709.11,704.09 707.36,702.00 706.25,700.16 C704.09,696.62 698.22,689.52 691.27,682.05 C688.53,679.09 687.04,678.07 687.02,679.13 C687.01,680.02 687.67,681.32 688.50,682.00 C689.33,682.68 690.00,684.29 690.00,685.56 C690.00,687.69 696.24,695.88 707.93,709.10 C710.17,711.63 712.00,714.06 712.00,714.50 C712.00,714.94 713.58,717.22 715.50,719.57 C717.42,721.91 719.00,724.13 719.00,724.50 C719.00,724.86 722.61,730.63 727.02,737.33 C731.44,744.02 735.77,750.62 736.66,752.00 C737.54,753.38 740.21,756.08 742.59,758.00 C744.96,759.92 753.34,766.72 761.20,773.10 C770.62,780.74 777.72,785.67 782.00,787.54 C785.58,789.10 788.72,790.55 789.00,790.77 C789.28,790.98 789.72,798.48 790.00,807.42 C790.48,823.14 790.59,823.80 793.25,827.64 C794.76,829.82 796.00,832.00 796.00,832.48 C796.00,832.95 796.60,834.05 797.33,834.92 C799.26,837.21 804.77,853.64 805.57,859.50 C806.30,864.86 806.88,866.46 807.75,865.59 C808.05,865.28 807.71,860.87 806.99,855.77 ZM 176.37 495.93 C177.81,494.79 179.02,493.10 179.04,492.18 C179.06,491.21 180.85,489.66 183.29,488.50 C186.63,486.91 187.77,485.67 188.80,482.52 C189.55,480.24 189.83,476.95 189.47,474.81 C188.12,466.81 179.33,459.00 171.69,459.00 C167.32,459.00 161.80,462.73 160.55,466.53 C160.02,468.16 159.44,469.70 159.27,469.94 C159.09,470.18 156.72,468.18 153.99,465.49 L 149.03 460.60 L 146.01 463.49 C144.36,465.08 143.00,466.82 143.00,467.36 C143.00,468.45 172.01,498.00 173.07,498.00 C173.43,498.00 174.92,497.07 176.37,495.93 ZM 264.49 333.41 C266.79,331.90 269.00,327.98 269.00,325.39 C269.00,324.37 269.60,324.06 270.82,324.44 C272.97,325.13 277.36,320.95 276.84,318.71 C276.65,317.90 270.11,310.63 262.29,302.57 L 248.08 287.90 L 245.58 289.54 C241.39,292.29 241.34,294.74 245.40,298.90 C249.21,302.80 249.97,305.00 247.52,305.00 C246.70,305.00 244.62,306.26 242.89,307.81 C240.34,310.09 239.65,311.59 239.25,315.76 C238.84,320.06 239.19,321.65 241.38,325.39 C246.85,334.72 257.07,338.27 264.49,333.41 ZM 285.92 389.67 C290.54,386.62 293.00,381.70 293.00,375.55 C293.00,369.93 291.26,366.31 286.57,362.20 C280.35,356.73 272.60,356.78 266.28,362.33 C259.97,367.87 258.29,375.72 261.89,382.79 C266.85,392.50 277.17,395.46 285.92,389.67 ZM 207.97 465.52 C209.62,464.66 211.60,462.32 212.61,460.02 C213.63,457.71 215.07,456.00 216.01,456.00 C216.90,456.00 218.95,454.60 220.56,452.90 L 223.50 449.79 L 221.00 448.19 C219.62,447.31 215.25,443.32 211.28,439.32 C207.31,435.32 202.85,431.75 201.38,431.38 C198.11,430.56 193.51,432.84 188.93,437.58 C186.25,440.34 185.59,441.92 185.21,446.45 C184.85,450.79 185.08,452.09 186.30,452.56 C188.77,453.51 193.00,450.13 193.00,447.21 C193.00,444.14 195.61,441.00 198.15,441.00 C200.71,441.00 200.51,442.01 196.50,449.30 C192.32,456.90 192.14,459.82 195.59,463.92 C198.55,467.44 203.11,468.03 207.97,465.52 ZM 183.60 410.96 C187.09,409.63 189.99,406.29 190.70,402.76 C191.09,400.82 191.86,400.00 193.31,400.00 C195.59,400.00 200.00,396.34 200.00,394.44 C200.00,393.77 198.76,392.44 197.25,391.48 C195.74,390.52 191.52,386.64 187.88,382.87 C182.42,377.21 180.70,376.00 178.08,376.00 C168.87,376.00 159.91,387.38 162.91,395.26 C164.16,398.55 164.38,398.58 168.18,395.87 C170.30,394.36 171.02,393.17 170.65,391.76 C169.99,389.26 174.23,384.77 176.44,385.62 C178.54,386.42 178.47,386.69 174.47,392.95 C170.60,399.03 169.97,404.08 172.61,407.85 C175.24,411.61 179.06,412.69 183.60,410.96 ZM 293.30 304.69 C298.94,301.28 300.99,297.56 300.99,290.75 C301.00,284.41 300.27,283.86 296.16,287.08 C294.43,288.43 293.32,290.44 293.00,292.81 C292.61,295.65 291.90,296.67 289.81,297.40 C287.87,298.08 286.67,297.97 285.50,297.00 C284.06,295.81 284.63,294.92 290.68,288.82 C298.33,281.11 298.37,280.25 291.40,276.27 C275.14,266.96 260.81,288.26 274.63,301.19 C281.24,307.37 287.07,308.46 293.30,304.69 ZM 18.07 848.37 C20.41,828.26 21.04,821.28 22.06,804.50 C22.65,794.60 23.54,784.92 24.03,783.00 C25.35,777.84 25.88,766.05 24.83,765.39 C24.33,765.09 24.17,764.03 24.48,763.05 C24.80,762.07 24.55,759.97 23.94,758.38 C22.32,754.16 21.18,746.21 20.03,731.04 C18.87,715.70 16.83,700.00 16.24,701.79 C16.01,702.46 15.13,703.00 14.27,703.00 C12.96,703.00 12.81,703.99 13.32,709.25 C13.65,712.69 15.28,728.89 16.93,745.27 C19.39,769.56 19.77,776.45 19.01,782.77 C18.49,787.02 17.59,801.53 16.99,815.00 C16.40,828.47 15.43,841.97 14.84,845.00 C12.73,855.91 12.71,856.20 14.11,857.07 C16.32,858.43 17.10,856.73 18.07,848.37 ZM 312.00 361.14 C312.00,360.32 308.85,356.40 305.00,352.43 C301.15,348.46 298.00,344.59 298.00,343.83 C298.00,341.61 300.96,338.00 302.79,338.00 C303.71,338.00 308.17,341.69 312.71,346.21 L 320.96 354.41 L 323.98 351.52 C325.64,349.93 327.00,348.12 327.00,347.50 C327.00,346.88 322.79,342.24 317.63,337.18 C309.53,329.24 307.81,328.00 304.86,328.00 C300.48,328.00 294.41,332.84 293.48,337.08 C293.03,339.14 292.35,339.97 291.42,339.61 C289.93,339.04 285.00,343.34 285.00,345.20 C285.00,345.81 289.81,351.19 295.70,357.15 L 306.39 368.00 L 309.20 365.31 C310.74,363.83 312.00,361.96 312.00,361.14 ZM 238.39 435.52 C243.12,431.91 245.00,428.26 245.00,422.68 C245.00,412.68 238.42,410.39 227.27,416.52 C220.02,420.50 217.45,420.23 221.58,415.91 C223.48,413.93 224.98,413.21 226.42,413.57 C227.99,413.96 228.97,413.32 230.34,411.00 C232.96,406.56 231.96,405.00 226.51,405.00 C222.59,405.00 221.35,405.56 217.65,408.97 C210.28,415.76 209.29,424.29 215.36,428.54 C218.58,430.79 221.78,430.31 228.70,426.50 C235.89,422.55 237.00,422.30 237.00,424.67 C237.00,427.56 233.91,430.00 230.26,430.00 C226.65,430.00 223.10,433.00 223.03,436.08 C222.98,438.69 224.25,439.21 229.58,438.78 C233.18,438.48 235.74,437.54 238.39,435.52 ZM 342.58 333.51 C348.22,330.20 351.00,325.56 351.00,319.45 C351.00,309.59 344.82,307.55 333.03,313.49 C325.59,317.23 323.16,316.75 327.50,312.41 C329.17,310.74 330.81,309.98 332.06,310.30 C334.29,310.89 338.00,306.87 338.00,303.87 C338.00,302.29 337.21,302.00 332.86,302.00 C328.04,302.00 327.41,302.31 322.86,306.86 C318.31,311.41 318.00,312.04 318.00,316.86 C318.00,326.59 325.00,328.88 336.10,322.78 C342.93,319.03 345.54,319.77 341.87,324.43 C340.04,326.76 339.15,327.12 336.37,326.67 C333.54,326.21 332.74,326.56 331.02,328.97 C328.72,332.21 328.43,334.60 330.25,335.34 C333.37,336.60 338.64,335.82 342.58,333.51 ZM 263.32 410.84 C266.23,409.30 269.00,406.05 269.00,404.18 C269.00,403.34 268.26,401.83 267.35,400.83 C265.56,398.86 263.00,398.37 263.00,400.00 C263.00,402.45 259.02,400.59 254.53,396.03 C249.88,391.31 249.70,390.93 250.99,388.52 C252.21,386.24 252.11,385.75 250.00,383.50 C247.79,381.15 247.55,381.10 245.81,382.68 C244.06,384.26 243.77,384.17 240.68,381.17 C238.88,379.43 236.96,378.00 236.42,378.00 C235.88,378.00 234.83,380.04 234.10,382.54 C232.92,386.51 232.95,387.29 234.34,388.82 C235.30,389.89 235.69,391.46 235.34,392.82 C234.56,395.78 237.68,399.32 240.42,398.60 C241.92,398.21 244.26,399.85 249.61,405.04 C256.94,412.15 259.11,413.07 263.32,410.84 ZM 228.55 367.55 C229.90,366.20 230.98,364.73 230.96,364.30 C230.93,363.86 224.22,356.52 216.04,348.00 L 201.16 332.50 L 198.05 335.47 C196.34,337.10 195.06,338.98 195.22,339.64 C195.65,341.49 223.32,369.80 224.80,369.91 C225.51,369.96 227.20,368.90 228.55,367.55 ZM 213.09 382.91 L 215.98 379.81 L 201.24 364.42 C193.13,355.95 186.02,349.02 185.42,349.01 C183.72,348.99 179.78,353.67 180.16,355.27 C180.58,357.06 208.00,386.00 209.28,386.00 C209.78,386.00 211.50,384.61 213.09,382.91 ZM 271.90 379.89 C263.96,371.39 273.36,363.16 281.60,371.40 C285.61,375.41 286.04,379.15 282.78,381.44 C279.18,383.97 275.17,383.40 271.90,379.89 ZM 169.00 480.38 C164.14,475.99 163.59,471.97 167.51,469.40 C169.64,468.01 170.47,467.95 173.07,469.03 C176.64,470.51 181.00,475.82 181.00,478.69 C181.00,481.24 177.98,484.00 175.17,484.00 C173.98,484.00 171.20,482.37 169.00,480.38 ZM 251.57 322.63 C243.08,314.62 250.70,306.41 259.47,314.11 C263.86,317.96 264.89,321.36 262.46,324.04 C259.75,327.03 255.68,326.51 251.57,322.63 ZM 143.69 431.20 C142.21,429.65 141.00,428.08 141.00,427.69 C141.00,426.90 148.47,419.94 150.73,418.64 C152.92,417.37 157.00,419.90 157.00,422.52 C157.00,424.58 148.94,434.00 147.17,434.00 C146.73,434.00 145.16,432.74 143.69,431.20 ZM 714.90 657.06 C708.61,652.89 706.57,650.37 703.73,643.27 C701.15,636.78 701.73,636.31 705.99,641.43 C707.37,643.10 711.42,647.55 715.00,651.33 C718.58,655.11 721.65,658.60 721.83,659.10 C722.50,660.89 719.25,659.94 714.90,657.06 ZM 128.93 415.32 L 133.44 411.16 C138.16,406.81 140.94,406.02 142.95,408.44 C144.47,410.27 143.39,412.31 138.28,417.26 L 134.39 421.02 ZM 74.25 588.88 C77.33,586.59 77.93,584.47 75.25,585.37 C74.29,585.70 75.30,584.51 77.50,582.73 C79.70,580.96 84.12,576.92 87.32,573.75 C90.53,570.59 93.32,568.00 93.54,568.00 C94.30,568.00 92.60,571.54 88.99,577.50 C86.52,581.58 83.61,584.69 79.93,587.20 C74.22,591.08 69.37,592.52 74.25,588.88 ZM 832.36 597.03 C827.38,593.83 825.53,591.85 822.52,586.47 C820.48,582.83 819.09,579.58 819.42,579.25 C819.75,578.92 822.37,581.15 825.26,584.21 C828.14,587.27 831.96,590.51 833.75,591.41 C837.26,593.18 838.04,595.00 835.29,595.00 C834.07,595.00 834.57,595.85 837.04,597.96 C841.92,602.13 839.61,601.67 832.36,597.03 ZM 202.20 456.80 C200.46,455.06 200.71,453.87 203.50,450.50 C205.92,447.58 206.03,447.55 207.50,449.44 C209.50,452.03 209.39,454.33 207.17,456.35 C205.00,458.31 203.82,458.42 202.20,456.80 ZM 179.67 401.33 C178.38,400.05 179.03,397.48 181.36,394.56 L 183.71 391.63 L 185.47 394.31 C187.11,396.82 187.12,397.17 185.59,399.50 C184.04,401.87 181.11,402.78 179.67,401.33 ZM 277.67 289.33 C276.29,287.96 277.07,285.06 279.22,283.56 C281.77,281.77 282.90,281.65 284.98,282.97 C286.22,283.75 285.98,284.41 283.55,286.95 C280.67,289.96 278.97,290.64 277.67,289.33 ZM 377.29 579.18 C376.24,577.78 374.84,576.45 374.19,576.23 C371.98,575.49 372.98,579.37 375.75,582.27 C378.04,584.66 378.56,584.86 378.85,583.44 C379.04,582.51 378.34,580.59 377.29,579.18 ZM 370.52 613.60 C372.50,609.70 372.39,609.34 369.89,611.60 C367.83,613.46 363.96,620.14 364.04,621.71 C364.09,622.87 368.81,616.97 370.52,613.60 ZM 62.50 595.00 C61.94,594.09 65.81,592.00 68.07,592.00 C69.71,592.00 69.07,593.89 67.07,594.96 C64.63,596.27 63.29,596.28 62.50,595.00 ZM 377.78 597.50 L 377.76 592.50 L 376.48 599.00 C375.77,602.57 375.47,605.94 375.80,606.49 C376.73,607.99 377.80,603.12 377.78,597.50 ZM 140.33 558.40 C141.87,556.97 142.87,555.54 142.55,555.22 C141.83,554.50 136.77,558.18 136.23,559.81 C135.58,561.77 137.35,561.16 140.33,558.40 ZM 776.00 570.19 C776.00,568.64 771.91,565.00 770.21,565.04 C768.97,565.07 769.45,565.90 771.96,568.04 C775.72,571.25 776.00,571.40 776.00,570.19 ZM 845.20 604.19 C843.94,603.22 843.18,602.15 843.52,601.82 C844.43,600.90 850.11,604.02 849.45,605.08 C848.65,606.38 847.83,606.21 845.20,604.19 ZM 702.00 699.50 C702.00,698.67 702.45,698.00 703.00,698.00 C703.55,698.00 704.00,698.67 704.00,699.50 C704.00,700.33 703.55,701.00 703.00,701.00 C702.45,701.00 702.00,700.33 702.00,699.50 ZM 338.32 692.71 C338.24,692.58 338.24,692.40 338.30,692.18 C338.28,692.27 338.28,692.34 338.29,692.40 C338.52,693.10 344.95,693.82 355.91,694.39 C360.95,694.65 364.53,694.82 367.18,694.89 C364.57,694.84 361.08,694.71 356.28,694.51 C345.80,694.07 338.72,693.36 338.32,692.71 ZM 452.53 483.84 C452.54,505.04 452.35,521.16 451.87,534.44 C452.18,523.84 452.34,510.53 452.47,492.16 ZM 427.57 722.53 C429.33,725.99 431.74,729.66 434.14,732.59 C433.92,732.37 433.72,732.17 433.53,732.00 C432.15,730.74 429.58,726.63 427.57,722.53 ZM 235.20 842.91 C237.21,845.93 240.18,848.31 243.50,849.42 C239.65,848.14 237.12,846.39 235.20,842.91 ZM 443.60 435.01 C445.22,436.05 447.03,437.20 448.41,438.07 L 452.40 440.57 L 449.83 439.16 C448.27,438.30 445.56,436.49 443.60,435.01 ZM 600.91 705.99 C596.09,706.12 595.82,705.68 595.22,704.07 C595.21,704.05 595.21,704.02 595.20,704.00 C595.70,705.23 597.11,705.87 600.91,705.99 ZM 240.91 723.44 C243.71,719.83 247.34,715.07 250.77,710.50 C255.20,704.59 258.49,700.23 261.07,697.09 C258.73,699.96 255.80,703.85 251.96,709.00 C248.20,714.05 243.88,719.68 240.91,723.44 ZM 633.73 704.03 C629.23,704.34 623.51,704.72 618.24,705.05 C618.65,705.01 619.07,704.98 619.50,704.94 C623.71,704.58 628.16,704.29 633.73,704.03 ZM 355.53 676.56 C351.99,679.89 347.36,683.95 344.37,686.35 C346.86,684.25 350.16,681.38 353.21,678.66 C354.06,677.90 354.83,677.20 355.53,676.56 ZM 442.24 741.15 L 442.25 741.15 C442.57,740.82 442.83,739.12 443.03,735.36 C442.91,738.67 442.79,740.60 442.67,740.79 C442.54,740.98 442.40,741.10 442.24,741.15 ZM 459.52 437.44 C461.92,437.68 464.53,437.43 466.65,436.85 C464.68,437.51 462.22,437.81 459.91,437.50 C459.79,437.49 459.66,437.46 459.52,437.44 ZM 233.37 733.62 C234.11,732.12 235.01,730.83 236.19,729.39 C235.09,730.88 234.08,732.40 233.37,733.62 ZM 385.25 556.22 C387.20,555.62 388.65,556.29 389.52,558.25 C388.71,556.43 387.18,555.76 385.25,556.22 ZM 444.52 595.01 C443.11,597.85 441.19,598.77 437.91,599.69 C441.17,598.78 443.11,597.74 444.52,595.01 ZM 340.84 689.23 C339.50,690.43 338.56,691.49 338.34,692.08 C338.61,691.34 339.55,690.24 340.84,689.23 ZM 372.66 694.73 C374.46,694.48 375.47,693.98 376.97,693.14 C377.13,693.05 377.28,692.96 377.44,692.88 C377.31,692.96 377.17,693.04 377.04,693.12 C375.62,693.98 374.63,694.49 372.66,694.73 ZM 385.59 691.28 C388.57,691.92 392.18,693.89 397.82,697.48 C392.26,693.94 388.58,691.96 385.59,691.28 ZM 254.04 864.41 C254.82,865.33 255.70,866.00 256.18,866.00 C255.56,866.00 254.77,865.35 254.04,864.41 ZM 268.17 690.50 C270.50,689.54 272.41,690.59 275.50,692.46 C272.41,690.59 270.47,689.58 268.17,690.50 ZM 435.07 431.04 C435.59,431.10 436.19,431.23 436.81,431.41 C436.35,431.32 435.74,431.19 435.07,431.04 ZM 438.88 738.05 C439.32,738.60 439.71,739.10 440.02,739.55 C439.73,739.19 439.41,738.77 439.05,738.29 C439.00,738.21 438.94,738.13 438.88,738.05 ZM 252.28 861.04 C252.10,860.47 252.00,859.91 252.00,859.43 C252.00,859.88 252.10,860.44 252.28,861.04 Z" fill="rgb(124,215,28)"/>
<path d="M 473.42 213.52 C472.51,209.93 473.41,24.74 474.34,23.25 C474.92,22.32 480.26,22.00 495.41,22.00 L 515.70 22.00 L 516.33 31.75 C517.40,48.11 517.10,170.12 515.99,174.00 C515.25,176.59 509.94,182.53 495.67,196.75 C485.05,207.34 475.84,216.00 475.20,216.00 C474.56,216.00 473.76,214.88 473.42,213.52 ZM 406.19 196.42 L 385.99 175.85 L 386.50 22.50 L 428.50 22.50 L 428.75 119.75 C428.96,199.33 428.77,217.00 427.70,217.00 C426.98,217.00 417.30,207.74 406.19,196.42 ZM 316.95 106.40 L 296.50 85.80 L 296.21 56.15 C296.04,39.84 296.16,25.49 296.47,24.25 C297.04,22.01 297.10,22.00 318.00,22.00 L 338.97 22.00 L 339.23 46.25 C339.63,82.42 339.04,127.00 338.17,127.00 C337.75,127.00 328.20,117.73 316.95,106.40 ZM 563.24 74.75 L 563.50 22.50 L 605.50 22.50 L 605.76 54.04 L 606.03 85.58 L 585.50 106.29 C574.22,117.68 564.53,127.00 563.98,127.00 C563.33,127.00 563.07,109.07 563.24,74.75 Z" fill="rgb(185,53,23)"/>
<path d="M 279.15 874.92 C275.70,870.55 271.46,868.67 266.76,869.42 C260.32,870.45 262.52,868.17 275.63,860.21 C291.73,850.43 292.55,850.82 291.42,867.72 L 290.73 878.00 L 286.11 877.94 C282.23,877.90 281.13,877.42 279.15,874.92 ZM 360.50 866.90 C356.68,864.68 352.00,859.60 352.00,857.67 C352.00,856.61 353.91,853.83 356.25,851.51 C359.89,847.88 361.29,847.18 366.00,846.62 C371.77,845.92 376.64,846.88 380.62,849.49 C385.55,852.72 382.89,861.94 376.00,865.50 C372.09,867.52 362.98,868.34 360.50,866.90 ZM 374.92 861.41 C377.00,859.66 378.00,857.92 378.00,856.03 C378.00,851.53 376.01,850.67 367.50,851.47 C361.45,852.04 359.70,852.58 358.50,854.31 C354.67,859.78 358.22,864.00 366.65,864.00 C370.78,864.00 372.48,863.47 374.92,861.41 ZM 253.56 863.78 C252.70,862.56 252.00,860.60 252.00,859.43 C252.00,855.79 247.82,850.87 243.50,849.42 C238.62,847.79 234.49,843.39 233.05,838.30 C230.97,830.98 227.91,810.41 227.35,800.00 C226.66,787.32 230.44,740.27 232.56,735.21 C233.32,733.38 235.90,729.54 238.29,726.69 C240.68,723.84 246.83,715.88 251.96,709.00 C267.28,688.47 268.04,687.93 275.50,692.46 C277.70,693.80 280.76,695.61 282.29,696.49 C283.83,697.37 288.16,700.08 291.92,702.52 L 298.75 706.94 L 299.40 722.72 C299.75,731.40 300.54,749.30 301.15,762.50 C301.83,777.23 301.97,796.45 301.52,812.26 C300.67,841.72 300.78,841.36 291.62,845.40 C288.81,846.65 279.92,851.79 271.87,856.83 C263.83,861.88 256.76,866.00 256.18,866.00 C255.59,866.00 254.41,865.00 253.56,863.78 ZM 264.03 842.94 C265.07,841.00 263.96,825.84 262.40,820.75 C261.73,818.57 258.42,818.45 257.61,820.58 C256.65,823.08 256.90,836.17 257.98,839.94 C259.45,845.07 262.17,846.42 264.03,842.94 ZM 265.64 778.63 C268.37,776.29 268.39,776.16 268.81,761.38 C269.20,747.39 269.10,746.39 267.19,744.66 C264.59,742.32 262.24,742.80 259.71,746.18 C257.99,748.48 257.64,750.90 257.22,763.41 C256.70,778.70 257.20,781.00 261.07,781.00 C262.07,781.00 264.13,779.94 265.64,778.63 ZM 352.00 840.96 C344.02,840.57 337.40,840.19 337.29,840.13 C335.24,838.93 335.16,834.34 336.90,816.07 C338.60,798.13 339.11,795.37 341.76,789.76 C345.91,780.99 353.50,771.00 356.02,771.00 C357.13,771.00 363.99,773.65 371.27,776.88 C389.39,784.93 391.85,786.16 392.31,787.41 C392.53,788.01 392.44,799.12 392.11,812.10 C391.65,829.86 391.16,836.10 390.13,837.34 C387.19,840.88 374.71,842.07 352.00,840.96 ZM 389.00 776.61 C374.41,771.33 365.44,766.23 367.35,764.31 C368.47,763.20 401.83,761.85 420.07,762.18 L 437.63 762.50 L 444.57 766.09 C459.12,773.63 463.97,776.53 463.66,777.50 C463.45,778.13 450.93,778.59 429.42,778.74 C396.00,778.97 395.40,778.94 389.00,776.61 ZM 441.00 741.26 C441.00,740.63 438.59,737.50 435.64,734.31 C432.39,730.79 428.89,725.51 426.77,720.91 C423.12,712.99 420.36,710.17 412.26,706.10 C409.93,704.93 403.43,701.05 397.82,697.48 C386.42,690.23 383.30,689.58 376.97,693.14 C373.31,695.20 372.54,695.24 355.91,694.39 C344.95,693.82 338.52,693.10 338.29,692.40 C338.09,691.79 340.31,689.48 343.22,687.26 C346.12,685.04 351.83,680.07 355.89,676.23 C362.59,669.88 363.22,668.97 362.60,666.37 C362.23,664.79 362.01,662.83 362.11,662.00 C362.22,661.17 362.40,652.94 362.52,643.69 L 362.74 626.88 L 365.99 621.69 C367.78,618.84 370.09,615.28 371.12,613.79 C372.15,612.30 373.00,610.39 373.00,609.54 C373.00,608.66 373.87,608.00 375.03,608.00 C377.67,608.00 377.82,607.49 378.92,594.57 C379.76,584.66 379.67,583.28 377.94,579.88 C376.89,577.82 375.57,575.85 375.01,575.51 C372.05,573.68 375.95,562.91 381.15,558.52 C384.90,555.37 388.20,555.26 389.52,558.25 C390.31,560.06 391.26,560.48 394.35,560.38 C396.64,560.30 398.94,559.50 400.06,558.38 C401.82,556.61 401.95,553.75 402.35,509.78 L 402.77 463.05 L 412.14 445.49 C420.06,430.63 421.81,427.99 423.50,428.34 C424.60,428.56 427.52,429.25 430.00,429.86 C432.48,430.47 435.66,431.19 437.08,431.46 C438.51,431.73 441.27,433.20 443.24,434.73 C445.20,436.25 448.17,438.25 449.83,439.16 L 452.85 440.82 L 452.47 492.16 C452.09,544.15 451.51,555.56 447.95,579.95 C445.68,595.50 444.48,597.85 437.91,599.69 C420.53,604.55 412.39,607.24 410.82,608.67 C408.26,610.98 408.56,613.84 411.50,615.18 C413.60,616.14 416.03,615.66 427.05,612.10 C434.24,609.78 441.10,608.02 442.31,608.19 C444.40,608.49 444.49,608.91 444.25,617.50 C444.11,622.45 443.89,652.01 443.75,683.20 C443.56,726.95 443.21,740.18 442.25,741.15 C441.38,742.02 441.00,742.06 441.00,741.26 ZM 424.23 543.59 C436.07,538.20 436.00,538.36 436.00,515.12 C436.00,504.33 436.50,486.01 437.12,474.40 C438.14,455.22 438.09,452.99 436.55,449.75 C434.51,445.45 430.06,443.24 426.20,444.60 C422.66,445.84 418.47,452.14 415.94,460.00 C414.05,465.86 413.75,470.33 412.85,505.31 C411.82,545.02 411.95,547.00 415.50,547.00 C416.19,547.00 420.12,545.47 424.23,543.59 ZM 324.05 718.25 C315.43,717.91 313.00,717.00 313.00,714.15 C313.00,713.26 311.38,709.92 309.41,706.72 C303.60,697.32 302.28,697.70 337.76,698.53 L 368.50 699.25 L 378.50 705.18 C384.00,708.45 389.40,711.80 390.50,712.63 C392.49,714.12 392.49,714.14 390.34,715.90 C387.15,718.52 357.13,719.58 324.05,718.25 ZM 595.17 703.92 C594.74,702.77 594.87,698.44 595.45,694.29 C596.25,688.57 596.98,686.43 598.50,685.47 C600.67,684.09 626.57,681.99 641.38,682.00 C649.35,682.00 650.47,682.23 652.21,684.25 C653.27,685.49 656.93,689.60 660.32,693.39 C668.52,702.53 668.75,702.99 665.30,703.06 C640.75,703.62 629.48,704.08 619.50,704.94 C600.40,706.58 596.08,706.40 595.17,703.92 ZM 188.07 590.07 L 172.65 575.24 L 175.75 571.37 C177.46,569.24 182.49,563.91 186.94,559.51 C193.76,552.78 195.30,551.70 196.76,552.62 C200.35,554.88 199.34,557.12 190.89,565.61 L 182.58 573.97 L 185.98 577.48 C187.86,579.42 189.86,581.00 190.42,581.00 C190.99,581.00 194.96,577.52 199.24,573.26 C205.80,566.74 207.30,565.70 208.76,566.62 C212.18,568.77 211.24,570.98 203.59,578.84 L 196.03 586.61 L 200.29 590.80 L 204.56 594.98 L 213.03 586.46 C221.68,577.75 224.12,576.62 226.39,580.24 C227.32,581.72 225.76,583.72 216.01,593.49 C209.70,599.82 204.30,604.98 204.02,604.95 C203.73,604.92 196.56,598.23 188.07,590.07 ZM 219.77 557.10 C204.53,542.23 204.51,542.20 206.41,540.10 C207.45,538.95 209.01,538.00 209.86,538.00 C210.71,538.00 216.95,543.49 223.73,550.19 L 236.06 562.38 L 242.91 555.59 C249.89,548.66 252.20,547.78 254.38,551.24 C255.31,552.72 254.03,554.43 246.01,562.49 C240.80,567.72 236.20,572.00 235.79,572.00 C235.38,572.00 228.17,565.30 219.77,557.10 ZM 500.50 565.32 C495.10,564.11 492.00,562.72 492.00,561.52 C492.00,560.21 505.48,554.00 508.32,554.00 C509.12,554.00 510.83,554.85 512.11,555.89 L 514.45 557.78 L 510.34 561.89 C506.41,565.82 504.97,566.32 500.50,565.32 ZM 270.98 511.48 C264.13,504.61 258.09,499.00 257.55,499.00 C257.01,499.00 254.50,501.03 251.98,503.52 L 247.39 508.04 L 245.05 505.56 L 242.72 503.07 L 250.77 494.29 C265.45,478.27 267.60,476.83 270.37,481.23 C271.27,482.65 270.71,483.72 267.23,487.27 C264.90,489.64 263.00,491.86 263.00,492.20 C263.00,492.54 268.62,498.34 275.50,505.08 C282.38,511.82 288.00,517.86 288.00,518.49 C288.00,519.13 286.97,520.62 285.71,521.80 L 283.42 523.95 L 270.98 511.48 ZM 295.50 494.11 C290.48,491.80 284.59,486.07 281.99,480.98 C277.00,471.20 281.38,457.91 291.26,452.87 C297.41,449.73 307.41,450.50 313.18,454.56 C320.24,459.52 323.37,464.92 323.82,472.88 C324.13,478.26 323.79,480.49 322.20,483.59 C316.74,494.20 305.40,498.67 295.50,494.11 ZM 308.33 487.64 C312.06,486.08 316.72,480.97 317.60,477.48 C319.62,469.41 309.03,458.09 299.40,458.02 C292.45,457.97 285.10,466.61 286.53,473.14 C287.44,477.26 294.45,484.82 299.50,487.13 C304.34,489.34 304.26,489.34 308.33,487.64 ZM 334.36 457.96 C330.16,456.68 321.38,448.66 318.95,443.90 C317.67,441.39 317.00,438.06 317.00,434.15 C317.00,429.11 317.49,427.51 320.25,423.45 C322.04,420.82 325.07,417.84 326.98,416.83 C330.41,415.03 339.11,414.34 342.42,415.61 C344.43,416.38 344.44,418.93 342.44,421.78 C341.21,423.54 340.49,423.80 339.01,423.00 C331.85,419.17 321.90,427.32 323.47,435.71 C324.27,439.95 330.89,447.39 336.34,450.17 C341.60,452.86 345.92,451.99 349.91,447.45 C353.85,442.96 354.50,440.14 352.63,435.66 C351.28,432.42 351.28,431.87 352.63,430.51 C354.97,428.18 357.92,428.66 359.02,431.57 C359.56,432.98 360.00,436.73 360.00,439.92 C360.00,446.52 357.96,450.34 351.76,455.32 C347.63,458.65 340.25,459.77 334.36,457.96 ZM 456.00 436.66 C449.28,434.07 438.66,428.49 438.28,427.35 C438.04,426.62 440.52,425.76 445.05,424.99 C451.21,423.95 452.74,424.01 456.10,425.39 C458.24,426.28 461.91,427.76 464.25,428.69 C469.51,430.78 471.00,431.86 471.00,433.59 C471.00,436.80 461.46,438.76 456.00,436.66 ZM 373.58 398.08 L 358.69 383.16 L 364.35 376.71 C371.04,369.09 376.43,365.13 381.15,364.36 C391.86,362.62 404.92,372.81 407.13,384.64 C408.57,392.37 406.84,396.36 398.23,405.21 C394.06,409.50 390.16,413.00 389.56,413.00 C388.97,413.00 381.77,406.29 373.58,398.08 ZM 395.24 398.17 C402.57,390.34 402.67,386.85 395.77,379.36 C387.79,370.71 382.88,369.91 375.21,376.03 C372.42,378.24 369.94,380.60 369.69,381.28 C369.27,382.39 388.63,403.00 390.10,403.00 C390.44,403.00 392.76,400.83 395.24,398.17 ZM 401.16 358.76 C400.52,358.12 400.00,356.79 400.00,355.80 C400.00,354.72 399.27,354.00 398.17,354.00 C397.17,354.00 395.30,352.88 394.01,351.51 C391.74,349.09 391.72,348.96 393.49,347.01 C396.03,344.21 397.33,344.47 400.90,348.53 C403.07,351.01 404.00,353.09 404.00,355.48 C404.00,359.26 402.92,360.52 401.16,358.76 ZM 430.63 358.53 C425.25,356.61 420.04,352.17 416.50,346.48 C413.94,342.36 413.50,340.67 413.50,334.91 C413.50,329.05 413.89,327.61 416.51,323.84 C420.82,317.61 428.75,313.67 435.64,314.34 C441.92,314.94 445.53,316.73 450.50,321.70 C455.44,326.63 457.00,330.55 457.00,338.01 C457.00,347.68 452.97,353.85 444.00,357.92 C438.75,360.30 435.94,360.43 430.63,358.53 ZM 444.96 349.38 C450.47,344.74 452.40,338.60 449.88,333.68 C448.23,330.47 442.90,325.04 439.80,323.41 C435.73,321.28 429.82,321.65 425.91,324.28 C419.04,328.91 418.02,336.25 423.30,343.17 C429.83,351.74 439.02,354.37 444.96,349.38 ZM 457.83 314.20 C444.83,301.40 442.66,298.84 443.57,297.37 C446.57,292.49 447.38,292.91 460.76,306.26 L 473.52 318.99 L 480.76 311.75 C486.87,305.65 488.28,304.68 489.75,305.61 C493.45,307.92 492.25,310.31 482.61,319.90 L 473.16 329.30 L 457.83 314.20 ZM 484.69 285.12 L 469.63 270.23 L 474.80 264.37 L 479.97 258.50 L 474.48 257.59 C468.44,256.58 467.81,255.47 471.39,252.10 C473.61,250.02 474.09,249.95 478.00,251.12 C480.31,251.81 482.45,253.00 482.74,253.76 C483.12,254.76 484.32,254.11 487.02,251.48 C490.95,247.65 493.50,247.26 495.36,250.21 C496.26,251.63 495.06,253.33 488.06,260.50 L 479.68 269.09 L 483.55 273.06 L 487.43 277.03 L 495.68 268.82 C503.81,260.74 503.95,260.65 505.96,262.47 C507.08,263.48 508.00,264.70 508.00,265.17 C508.00,265.64 504.54,269.64 500.32,274.06 L 492.63 282.10 L 496.81 286.28 L 500.99 290.46 L 510.01 281.49 C517.63,273.90 519.29,272.69 520.76,273.62 C524.51,275.98 523.35,278.11 512.37,289.13 C506.41,295.11 501.13,300.00 500.64,300.00 C500.15,300.00 492.97,293.30 484.69,285.12 ZM 516.00 253.13 L 500.50 238.29 L 507.39 230.59 C517.09,219.75 519.62,218.00 525.62,218.00 C533.92,218.00 538.76,223.46 537.56,231.46 L 536.93 235.66 L 547.49 237.48 C553.30,238.47 558.33,239.72 558.65,240.25 C558.98,240.78 557.93,242.53 556.32,244.14 L 553.39 247.07 L 546.95 245.55 C543.40,244.71 538.22,244.02 535.44,244.01 C531.18,244.00 529.94,244.45 527.69,246.80 C526.21,248.35 525.00,249.95 525.00,250.37 C525.00,250.79 527.79,253.79 531.20,257.04 L 537.41 262.94 L 535.03 265.47 C533.72,266.86 532.39,267.99 532.08,267.98 C531.76,267.97 524.53,261.29 516.00,253.13 ZM 524.81 239.61 C531.07,232.98 532.25,229.43 529.04,226.83 C525.46,223.94 523.48,224.60 516.78,230.92 L 510.50 236.85 L 514.45 240.92 C516.63,243.17 518.70,245.00 519.06,245.00 C519.42,245.00 522.00,242.57 524.81,239.61 ZM 550.02 218.14 L 534.55 203.32 L 540.28 196.79 C547.52,188.55 552.36,185.19 558.14,184.39 C566.79,183.21 577.01,189.79 581.61,199.50 C586.14,209.06 584.35,215.03 573.73,225.75 C569.78,229.74 566.31,232.99 566.03,232.98 C565.74,232.96 558.54,226.28 550.02,218.14 ZM 577.00 208.74 C577.00,201.78 567.11,192.00 560.07,192.00 C556.20,192.00 550.65,195.26 546.50,199.98 L 544.50 202.25 L 555.50 212.66 L 566.50 223.06 L 571.75 217.62 C576.01,213.20 577.00,211.53 577.00,208.74 ZM 590.39 189.51 C580.98,184.82 576.00,177.18 576.00,167.46 C576.00,156.85 582.85,149.17 593.88,147.40 C598.73,146.63 606.97,149.02 611.65,152.56 C618.76,157.95 622.22,171.69 618.39,179.30 C612.63,190.72 601.19,194.89 590.39,189.51 ZM 609.25 180.07 C612.53,176.58 613.00,175.46 613.00,171.17 C613.00,159.11 598.00,150.19 588.35,156.51 C585.26,158.53 582.01,163.80 582.00,166.79 C582.00,170.22 585.49,176.39 589.21,179.52 C597.16,186.23 603.31,186.40 609.25,180.07 ZM 620.26 146.89 C612.14,139.13 605.37,132.24 605.21,131.58 C604.86,130.11 608.50,126.66 609.88,127.15 C610.43,127.34 616.54,132.83 623.46,139.35 C637.88,152.92 636.81,152.74 645.17,143.03 C650.00,137.42 652.47,136.75 654.22,140.58 C655.34,143.05 654.98,143.56 645.95,152.03 C640.75,156.91 636.17,160.93 635.76,160.95 C635.35,160.98 628.38,154.65 620.26,146.89 ZM 659.43 136.91 C657.49,133.82 641.00,96.91 641.00,95.65 C641.00,93.95 644.21,91.00 646.07,91.00 C648.72,91.00 688.00,107.43 688.00,108.54 C688.00,109.15 686.87,110.72 685.48,112.02 L 682.96 114.38 L 678.46 112.19 C671.70,108.91 670.14,109.29 664.62,115.59 C660.05,120.80 659.82,121.31 661.00,123.82 C665.16,132.73 665.16,132.71 662.65,135.62 C660.77,137.80 660.15,138.05 659.43,136.91 ZM 663.48 105.96 C662.72,104.74 651.97,100.70 651.29,101.38 C650.93,101.73 651.93,104.73 653.51,108.03 L 656.38 114.03 L 660.15 110.35 C662.22,108.33 663.72,106.35 663.48,105.96 Z" fill="rgb(247,248,247)"/>
</g>
</svg>